<?xml version="1.0" encoding="UTF-8" standalone="no"?>
<!-- Generator: Adobe Illustrator 15.1.0, SVG Export Plug-In . SVG Version: 6.00 Build 0)  -->
<svg
   version="1.1"
   id="Layer_1"
   x="0px"
   y="0px"
   width="275.80789"
   height="350"
   viewBox="0 0 275.80789 350"
   enable-background="new 0 0 506 629"
   xml:space="preserve"
   sodipodi:docname="Sacred Heart.svg"
   inkscape:version="1.2.2 (b0a8486541, 2022-12-01)"
	xmlns:inkscape="http://www.inkscape.org/namespaces/inkscape"
	xmlns:sodipodi="http://sodipodi.sourceforge.net/DTD/sodipodi-0.dtd"
	xmlns="http://www.w3.org/2000/svg"
	xmlns:svg="http://www.w3.org/2000/svg">
	<defs
   id="defs835" />
	<sodipodi:namedview
   id="namedview833"
   pagecolor="#ffffff"
   bordercolor="#000000"
   borderopacity="0.25"
   inkscape:showpageshadow="2"
   inkscape:pageopacity="0.0"
   inkscape:pagecheckerboard="true"
   inkscape:deskcolor="#d1d1d1"
   showgrid="false"
   inkscape:zoom="1"
   inkscape:cx="236.5"
   inkscape:cy="294.5"
   inkscape:window-width="1880"
   inkscape:window-height="1012"
   inkscape:window-x="1100"
   inkscape:window-y="1100"
   inkscape:window-maximized="1"
   inkscape:current-layer="Layer_1" />
	<g
   id="g830"
   transform="matrix(0.59005622,0,0,0.59005622,-9.8986234,-11.565956)">
		<path
   fill="none"
   d="m 75.72,431.721 c 1.063,-1.636 2.874,-3.583 2.64,-5.04 -0.192,-1.192 -2.043,-1.789 -3.6,-2.64 -9.987,-5.456 -19.104,-11.744 -31.2,-14.4 -0.241,0 -0.286,0.194 -0.48,0.24 0,0.16 0,0.32 0,0.48 0.428,1.644 1.937,2.272 3.36,3.6 3.682,3.435 6.873,6.114 10.8,9.36 2.259,1.867 4.476,3.873 7.2,6.239 1.921,1.67 5.506,6.162 7.68,6 1.507,-0.112 2.583,-2.272 3.6,-3.839 z"
   id="path724" />
		<path
   fill="none"
   d="m 190.681,402.44 c 0.916,-2.821 2.747,-5.179 3.6,-7.68 0.258,-0.756 1.131,-2.134 0,-2.88 -0.08,0 -0.16,0 -0.24,0 -2.656,1.93 -4.621,5.05 -6.48,7.92 -3.115,4.811 -6.629,11.264 -9.36,16.561 -1.47,2.851 -3.46,7.465 -2.88,10.319 0.36,1.771 2.72,3.206 5.04,4.08 2.216,0.835 6.177,1.707 7.44,0 0.901,-1.217 0.124,-4.015 0,-6 -0.429,-6.913 0.274,-11.16 1.44,-15.84 0.545,-2.186 0.822,-4.576 1.44,-6.48 z"
   id="path726" />
		<path
   fill="none"
   d="m 242.521,359.241 c 4.74,-0.246 3.84,-5.512 4.08,-10.8 0.182,-4.004 0.7,-8.455 -1.2,-10.08 -1.052,-0.012 -2.248,-0.168 -2.4,0.72 -1.851,2.93 -0.017,8.185 -0.24,12.48 -0.154,2.955 -1.515,5.326 -0.24,7.68 z"
   id="path728" />
		<path
   fill="none"
   d="m 81.24,479.481 c -1.357,-0.978 -2.217,-3.202 -4.08,-2.16 -1.058,0.592 -2.668,3.58 -3.84,5.279 -1.528,2.216 -3.007,4.128 -2.88,6.24 2.936,0.394 4.878,-1.129 7.44,-2.64 1.173,-0.692 6.333,-3.114 6.24,-4.561 -0.085,-1.321 -2.032,-1.548 -2.88,-2.158 z"
   id="path730" />
		<path
   fill="none"
   d="m 338.521,401.001 c -0.692,4.4 0.57,8.961 4.08,9.12 2.688,0.121 7.258,-4.037 8.4,-5.521 5.019,-6.515 2.957,-18.334 1.439,-28.08 -1.036,-6.659 -3.446,-12.676 -5.76,-16.56 -0.16,0 -0.32,0 -0.479,0 0,-0.134 -0.194,-0.272 -0.24,0 -0.27,0.051 -0.374,0.267 -0.48,0.479 -0.554,1.93 0.023,4.061 0,6.24 -0.065,6.195 -0.924,12.392 -2.399,18.24 -1.47,5.817 -3.805,11.274 -4.561,16.082 z"
   id="path732" />
		<path
   fill="none"
   d="m 142.92,501.081 c -1.596,-0.521 -3.292,-0.38 -4.8,-0.72 -1.464,-0.33 -2.915,-0.872 -4.32,-1.44 -2.602,-1.051 -5.437,-2.088 -7.68,-3.84 -1.87,-1.46 -3.615,-3.95 -5.04,-6 -1.497,-2.153 -3.376,-4.812 -4.08,-7.2 -0.908,-3.081 -1.505,-9.021 -0.96,-13.2 0.19,-1.461 0.281,-3.309 0.72,-4.56 0.436,-1.243 1.652,-2.223 2.64,-3.36 4.021,-4.628 8.038,-9.077 13.68,-11.28 8.88,-3.466 18.793,-4.591 29.28,-3.84 1.679,0.121 3.289,0.558 5.04,0.48 1.844,-0.082 3.49,-0.654 5.28,-0.72 1.811,-0.067 3.626,0.393 5.52,0.479 4.692,0.217 9.829,-0.435 14.16,-1.92 4.224,-1.448 8.436,-3.066 11.28,-4.8 1.724,-1.051 5.882,-4.145 5.28,-6.72 -0.509,-2.181 -5.039,-2.525 -7.2,-2.881 -3.387,-0.556 -6.798,-1.345 -8.88,-0.96 -1.118,2.505 -0.646,5.159 -2.88,6.48 -2.296,1.357 -7.477,0.846 -10.8,-0.24 -3.45,-1.128 -7.244,-4.348 -7.92,-6.479 -0.501,-1.58 0.029,-3.172 -0.48,-4.32 -3.219,-1.84 -7.631,-2.617 -12,-3.12 -3.451,-0.397 -7.449,-0.521 -11.28,-0.24 -2.927,0.216 -6.061,1.18 -9.12,1.681 -3,0.491 -5.943,0.591 -8.64,1.439 -1.614,0.508 -3.201,1.483 -4.8,2.16 -1.791,0.759 -3.688,1.16 -5.28,1.92 -4.374,2.086 -8.732,5.599 -12.72,9.12 -4.114,3.633 -8.151,7.271 -10.56,11.28 -1.118,1.86 -2.075,4.821 -3.36,7.68 -1.184,2.634 -2.634,5.4 -3.36,7.92 -1.969,6.837 -0.836,15.773 0,23.28 0.96,8.614 3.224,14.179 7.44,19.44 3.094,3.859 7.833,8.765 12,10.56 1.421,0.612 4.21,1.275 6.24,1.44 11.711,0.947 25.334,-1.127 31.68,-5.761 0.144,-2.736 0.58,-5.18 0.96,-7.68 -1.683,-1.514 -2.933,-3.389 -5.04,-4.078 z m -22.32,-69.84 c 3.52,-0.615 7.813,-0.496 7.2,3.359 -0.599,3.767 -10.116,4.644 -11.04,1.44 -0.89,-3.087 1.47,-4.385 3.84,-4.799 z m 2.16,82.321 c -2.087,0.495 -5.645,-0.927 -6,-2.641 -0.516,-2.489 1.043,-3.146 2.88,-3.6 3.457,-0.855 5.503,0.225 5.76,2.16 0.217,1.635 -1.188,3.736 -2.64,4.081 z"
   id="path734" />
		<path
   fill="none"
   d="m 95.4,435.081 c 0.536,-3.766 -2.402,-8.406 -4.56,-8.88 -1.152,-0.253 -1.767,0.146 -2.4,0.24 -2.184,0.325 -3.301,1.118 -4.8,2.88 -3.417,4.012 -5.974,10.048 -8.64,14.88 -0.702,1.272 -1.592,2.73 -1.92,4.08 -1.447,5.967 1.664,17.846 5.28,17.52 3.112,-0.28 4.23,-7.403 5.28,-10.319 0.576,-1.602 1.619,-3.219 2.4,-4.801 1.615,-3.271 3.042,-6.729 4.8,-9.359 1.372,-2.053 4.213,-3.803 4.56,-6.241 z"
   id="path736" />
		<path
   fill="none"
   d="m 103.32,518.121 c -1.637,-1.373 -2.415,-2.413 -4.32,-2.64 -1.517,-0.181 -2.963,6.037 -3.6,8.159 -0.758,2.524 -1.15,5.361 -1.92,7.921 -1.702,5.654 -3.439,10.942 -4.56,15.12 1.381,0.49 2.216,-1.156 2.88,-1.921 0.859,-0.988 1.704,-2.075 2.4,-3.119 3.044,-4.565 5.384,-8.251 8.64,-12.961 1.441,-2.084 4.247,-4.906 3.84,-7.199 -0.248,-1.402 -2.191,-2.379 -3.36,-3.36 z"
   id="path738" />
		<path
   fill="none"
   d="m 88.44,303.801 c 3.059,6.003 5.813,9.241 11.04,12.96 2.241,1.595 4.781,3.474 7.2,4.56 2.561,1.149 5.719,1.98 8.64,3.12 2.961,1.156 5.92,2.587 8.64,3.12 3.053,0.598 6.922,0.647 10.32,0.96 2.846,0.262 6.28,1.054 8.88,-0.48 -0.278,-1.85 -1.672,-2.835 -2.64,-3.84 -0.995,-1.033 -1.962,-2.076 -3.12,-3.6 -1.367,-1.799 -3.943,-6.78 -6.24,-7.2 -1.575,-0.288 -3.067,1.188 -5.28,1.44 -10.736,1.224 -14.447,-13.879 -9.84,-21.6 1.194,-2.001 4.268,-3.009 4.32,-5.28 0.017,-0.732 -0.932,-1.787 -1.68,-3.12 -0.684,-1.219 -1.093,-2.508 -1.44,-3.36 -2.789,-6.847 -4.891,-16.039 -4.56,-24.96 0.101,-2.72 0.941,-5.668 1.68,-8.4 0.729,-2.694 1.298,-5.679 2.4,-7.92 0.645,-1.312 1.872,-2.341 2.88,-3.6 1.014,-1.267 1.81,-2.661 2.88,-3.6 1.605,-1.408 4.112,-2.106 4.8,-4.56 -1.368,-1.994 -4.048,-1.997 -6.72,-1.68 -3.788,0.449 -5.412,2.163 -8.16,4.32 -3.018,2.37 -4.304,3.584 -6.24,6.48 -1.472,2.201 -2.125,4.587 -3.36,6.72 -1.577,2.723 -4.733,3.447 -8.4,3.12 -1.511,2.338 -1.108,5.31 -0.48,7.68 1.012,3.817 3.398,7.987 5.52,11.76 2.021,3.595 4.095,8.33 5.04,12.24 0.895,3.702 -0.405,9.711 -1.92,12.48 -1.577,2.883 -5.77,5.004 -10.08,3.36 -1.369,-0.522 -2.8,-1.881 -3.84,-2.88 -0.976,-0.938 -1.838,-2.865 -3.6,-2.64 -0.764,1.719 -0.375,3.661 0,5.28 0.666,2.87 1.976,6.403 3.36,9.12 z"
   id="path740" />
		<path
   fill="none"
   d="m 396.121,240.681 c -0.014,1.113 0.617,2.054 1.439,3.36 1.892,3.004 3.693,6.546 4.08,10.32 0.472,4.607 -0.661,8.387 -2.399,11.28 -1.597,2.657 -5.386,6.74 -7.681,7.92 -7.088,3.645 -18.494,2.732 -19.68,-5.52 -0.364,-2.537 0.862,-5.026 0.72,-8.16 -2.059,-0.738 -3.659,0.828 -5.28,1.68 -4.774,2.511 -8.216,4.288 -11.76,8.4 -0.984,1.142 -1.678,2.664 -2.64,3.84 -1.015,1.24 -2.287,2.21 -3.12,3.36 -1.673,2.309 -3.141,5.316 -4.56,8.16 -2.842,5.694 -4.74,14.952 -1.921,21.84 1.751,4.277 7.218,9.498 12.24,11.04 1.879,0.577 4.413,0.6 6.96,0.72 3.433,0.162 6.451,0.27 9.12,-0.24 2.052,-0.392 10.513,-3.042 10.32,-5.04 -0.09,-0.934 -1.442,-1.062 -2.641,-1.68 -2.816,-1.455 -6.19,-3.584 -7.199,-6.48 -2.818,-8.089 3.511,-14.796 7.68,-17.28 10.315,-6.145 22.866,1.016 36.24,-0.48 4.813,-0.539 8.428,-2.841 10.8,-5.28 3.779,-3.887 7.447,-12.173 6.96,-18.96 -0.389,-5.423 -3.407,-11.304 -6.96,-13.68 -2.167,-1.449 -6.327,-1.713 -6.96,-4.56 -0.719,-3.232 1.841,-6.823 3.6,-9.36 2.677,-3.86 5.788,-6.521 9.12,-8.88 0.872,-0.617 2.55,-1.054 2.4,-2.64 -1.918,-0.993 -6.441,-0.977 -9.36,-0.72 -5.193,0.457 -8.4,1.936 -12.479,3.84 -5.099,2.379 -8.23,4.428 -12.48,7.68 -1.903,1.456 -4.533,3.22 -4.559,5.52 z"
   id="path742" />
		<path
   fill="none"
   d="m 159.48,480.441 c -2.702,1.764 -2.979,8.389 -3.84,12.96 -2.106,11.188 -4.231,21.892 -6.24,32.64 -0.366,1.956 -1.566,4.771 0.24,6.24 1.463,0.129 1.902,-1.19 2.4,-2.16 0.543,-1.057 1.016,-2.388 1.44,-3.36 5.885,-13.484 11.14,-26.218 17.28,-39.6 0.748,-1.631 3,-5.228 2.16,-6.96 -1.216,-2.511 -10.878,-1.432 -13.44,0.24 z"
   id="path744" />
		<path
   fill="none"
   d="m 325.081,103.88 c 0.653,-1.035 1.462,-1.98 2.159,-2.88 4.586,-5.92 8.584,-10.743 16.32,-13.92 2.497,-1.025 5.572,-1.826 8.641,-2.64 9.031,-2.395 20.122,-2.679 28.08,-6 10.031,-4.187 16.377,-12.349 17.279,-24.96 0.59,-8.241 -2.553,-16.5 -7.439,-21.12 -2.719,-2.57 -8.339,-5.711 -14.641,-5.04 -2.472,0.263 -6.334,1.025 -8.399,1.92 -3.539,1.532 -5.983,4.807 -8.16,7.92 -1.547,2.213 -3.049,4.83 -2.88,7.68 2.849,0.556 4.429,-0.963 6.96,-0.48 3.611,0.688 6.593,5.38 7.68,9.6 1.244,4.828 -1.026,8.377 -3.12,10.8 -2.863,3.313 -7.328,6.128 -11.279,7.68 -3.973,1.56 -8.955,2.081 -12.961,3.84 -0.937,0.411 -2.017,1.252 -3.119,1.92 -2.669,1.615 -4.5,2.894 -6.721,4.8 -3.135,2.691 -7.581,7.187 -9.359,10.08 -1.908,3.104 -3.908,9.768 -1.44,13.44 1.612,0.028 1.81,-1.708 2.399,-2.64 z"
   id="path746" />
		<path
   fill="none"
   d="m 111.24,382.761 c 0.859,-1.621 1.274,-4.431 3.84,-4.32 0.992,3.183 -1.138,6.317 -2.16,9.36 -0.554,1.649 -1.073,3.148 -1.44,4.8 -0.408,1.833 -0.378,3.709 -0.72,5.761 -0.532,3.185 -1.579,6.359 -1.44,9.84 0.1,2.493 0.956,4.981 0.96,7.439 0.001,1.016 -0.474,1.924 -0.48,2.88 -0.019,2.841 1.139,9.164 4.32,8.4 2.901,-0.696 0.138,-8.401 0,-10.32 -0.605,-8.446 -0.454,-16.542 0.72,-23.52 0.376,-2.238 0.434,-5.339 2.88,-5.521 1.745,1.91 0.198,5.138 -0.24,8.16 -0.925,6.379 -0.532,13.865 0,20.16 0.237,2.807 0.09,6.95 3.36,7.2 1.909,-1.546 0.53,-4.541 0.24,-7.2 -0.209,-1.922 -0.17,-4.118 -0.24,-6 -0.063,-1.701 -0.747,-4.313 1.44,-4.56 2.23,1.698 1.067,5.786 1.44,9.119 0.206,1.836 0.919,5.607 2.64,6.24 0.995,0.366 3,-0.614 5.04,-0.96 1.944,-0.329 4.185,-0.489 5.76,-0.72 3.998,-0.585 7.5,-1.686 11.28,-1.92 9.437,-0.587 16.577,0.95 24,1.68 1.905,-1.118 2.177,-3.539 3.12,-5.52 4.763,-10.007 10.793,-18.023 17.28,-26.641 2.04,-2.709 5.453,-8.322 9.84,-7.68 1.276,0.187 2.223,1.204 2.4,2.16 0.291,1.571 -0.906,2.835 -1.92,4.56 -4.315,7.337 -7.658,14.294 -10.08,23.04 -1.014,3.658 -2.287,7.967 -2.16,11.28 0.021,0.542 0.236,2.413 0.72,3.12 1.53,2.234 11.488,2.649 16.08,3.84 6.167,1.599 10.146,4.262 14.4,5.521 1.234,0.365 3.783,0.969 4.8,0.96 1.524,-0.015 4.626,-1.897 6.72,-2.881 1.992,-0.935 3.896,-2.345 5.76,-3.119 4.369,-1.818 8.899,-3.544 12.72,-5.04 8.555,-3.351 17.394,-7.103 25.68,-10.08 7.844,-2.819 18.632,-5.369 28.08,-7.681 6.527,-1.597 14.263,-3.613 21.359,-5.279 2.42,-0.568 6.51,-1.022 7.44,-1.681 1.062,-0.75 1.605,-3.873 2.4,-6.24 0.851,-2.535 1.436,-4.737 1.92,-6.72 1.759,-7.207 3.364,-14.277 2.88,-22.08 -0.184,-2.96 -1.6,-6.769 -0.96,-9.359 5.359,-2.917 7.271,1.634 9.36,5.279 1.412,2.465 2.558,4.389 3.6,6.721 2.133,4.773 4.001,11.179 4.32,16.319 0.392,6.319 -0.671,11.985 0,16.32 1.246,0.7 2.842,1.104 4.08,0.72 2.005,-0.621 1.426,-3.771 3.359,-4.08 2.031,0.209 0.575,3.905 2.88,3.841 2.665,-0.855 -0.311,-7.352 2.4,-8.16 3.517,-0.52 0.892,8.76 4.08,8.399 1.945,-0.22 1.167,-4.492 0.96,-5.52 -0.434,-2.151 -3.004,-6.815 -0.24,-7.2 1.663,-0.231 3.336,5.781 3.6,7.2 0.422,2.264 -0.489,5.866 2.4,6.479 1.72,-2.017 0.866,-5.188 0.48,-7.439 -0.846,-4.93 -2.609,-9.451 -4.32,-13.44 -0.794,-1.851 -3.032,-4.12 -1.44,-6 1.773,-0.298 2.683,1.514 3.36,2.88 0.691,1.395 1.34,3.152 1.92,4.561 1.22,2.959 2.641,6.66 3.36,9.6 0.745,3.046 0.34,12.059 4.319,11.28 3.178,-0.621 0.602,-8.845 -0.239,-11.521 -2.553,-8.112 -5.922,-14.858 -10.08,-21.12 -1.545,-2.325 -7.076,-6.435 -3.12,-9.84 3.269,0.82 3.521,3.927 4.8,6.48 1.167,2.328 2.74,4.608 4.08,6.96 2.77,4.86 5.146,9.496 6.96,15.36 0.881,2.848 2.125,5.687 2.64,8.64 0.123,0.703 -0.325,5.93 1.681,5.76 1.729,-0.146 1.404,-6.241 1.2,-8.16 -0.265,-2.481 -1.14,-5.12 -1.681,-7.68 -0.533,-2.525 -1.205,-5.039 -2.16,-7.2 -4.957,-11.217 -12.51,-18.976 -20.88,-26.16 -1.58,-1.356 -3.91,-2.875 -4.319,-5.28 4.806,-1.654 7.024,3.531 9.84,6 1.202,1.054 2.833,1.78 4.08,2.88 1.758,1.55 3.424,3.826 5.04,6 1.622,2.182 3.356,4.325 4.8,6.479 4.138,6.179 6.856,13.282 8.399,21.36 0.417,2.183 0.919,4.553 0.96,6.479 0.026,1.215 -1.604,7.727 1.2,8.16 2.483,0.385 2.693,-2.269 2.88,-4.56 0.557,-6.82 -0.1,-15.896 -1.92,-20.4 -0.564,-1.398 -1.813,-2.562 -2.399,-3.84 -0.486,-1.058 -0.671,-2.367 -1.2,-3.36 -1.408,-2.64 -3.555,-5.191 -5.521,-7.199 -5.157,-5.27 -10.134,-11.777 -16.08,-15.601 -1.308,-0.841 -2.896,-1.173 -4.319,-2.16 -1.153,-0.799 -1.901,-1.995 -2.88,-2.88 -3.119,-2.821 -6.826,-5.049 -10.32,-7.2 -6.778,-4.173 -17.222,-7.423 -26.88,-8.4 -3.721,-0.377 -7.398,-0.3 -11.28,-0.48 -6.921,-0.322 -13.177,0.864 -19.92,3.12 -5.652,1.891 -11.317,4.304 -16.8,6.48 -11.332,4.497 -21.148,9.998 -29.521,17.52 -5.22,4.69 -10.812,9.432 -14.88,14.88 -2.723,3.647 -5.362,7.478 -7.68,11.28 -1.561,2.563 -2.867,5.434 -4.32,8.16 -1.523,2.859 -3.494,5.521 -4.56,8.16 -1.109,2.744 -0.298,6.948 -5.76,5.76 -1.823,-4.076 1.283,-7.666 2.88,-10.8 1.639,-3.217 3.278,-6.777 4.8,-10.32 2.088,-4.861 5.499,-9.902 8.64,-13.92 1.205,-1.541 2.736,-3.245 3.12,-4.56 0.516,-1.768 -0.009,-3.656 0,-5.761 0.018,-4.534 0.67,-10.499 0.24,-15.12 -0.131,-1.413 0.331,-3.741 -1.68,-3.84 -1.634,0.979 -1.559,3.721 -1.68,6.48 -0.116,2.647 0.846,6.248 -1.2,7.2 -3.486,-1.314 -1.067,-8.533 -2.64,-11.76 -2.587,0.373 -1.053,4.867 -3.84,5.04 -1.587,-0.412 -1.011,-2.988 -1.44,-4.56 -1.241,-1.685 -3.466,-0.949 -3.36,-3.12 0.097,-1.981 5.436,-2.562 7.92,-3.12 4.118,-0.925 6.819,-1.142 9.6,-1.68 2.978,-0.576 6.32,-1.18 9.84,-1.44 3.855,-0.285 7.951,0.078 10.56,0.24 3.181,0.197 6.781,0.309 10.08,0.96 2.146,0.423 7.399,2.457 9.12,1.68 2.165,-0.977 2.334,-6.773 2.16,-9.84 -0.15,-2.662 -0.894,-5.753 -2.16,-6.96 -0.736,-0.702 -1.804,-0.781 -2.88,-1.2 -1.048,-0.408 -1.975,-0.97 -3.12,-1.2 -2.833,-0.568 -13.117,0.463 -13.439,-2.88 -0.443,-4.59 8.121,-3.604 11.52,-3.36 1.881,0.135 2.954,-0.168 4.32,0 2.875,0.355 5.5,1.754 8.4,2.4 10.162,2.263 24.851,1.394 32.16,-2.64 2.16,-1.192 5.327,-3.874 6.72,-5.52 10.189,-12.047 11.804,-48.082 -6.96,-50.88 -2.264,1.965 -2.193,4.94 -3.12,7.2 -1.717,4.188 -4.283,6.521 -7.44,9.12 -3.486,2.87 -7.139,4.434 -12.72,4.8 -10.518,0.689 -21.767,-1.948 -26.4,-8.64 -3.112,-4.496 -6.038,-10.081 -5.52,-16.8 0.785,-10.186 4.175,-20.288 9.36,-27.84 2.469,-3.597 5.713,-6.693 8.88,-9.6 5.976,-5.485 18,-14.147 26.64,-6.72 4.101,3.524 7.111,10.403 6.96,17.04 -0.08,3.528 -1.749,6.474 -1.2,9.84 2.271,0.177 4.008,-1.398 5.521,-2.64 5.813,-4.773 9.928,-10.964 10.56,-20.4 0.295,-4.391 -0.853,-8.839 -1.2,-13.68 -0.604,-8.442 2.691,-14.014 5.761,-18.72 1.132,-1.736 2.249,-3.544 3.359,-4.56 3.572,-3.266 9.703,-5.313 15.601,-7.92 19.129,-8.454 46.266,-2.3 44.64,20.4 -0.849,11.846 -4.932,21.995 -12.72,26.4 -10.883,6.156 -22.491,-1.687 -24.24,-10.32 -0.388,-1.915 0.198,-4.402 -0.72,-6.96 -2.73,0.859 -4.045,3.211 -5.04,5.76 -1.045,2.676 -1.646,6.228 -1.44,9.36 0.149,2.285 0.598,5.309 1.44,7.2 1.066,2.395 5.263,5.751 7.68,6.72 2.601,1.042 6.684,0.908 10.08,0.96 11.456,0.175 18.716,-1.541 25.92,-5.76 5.098,-2.985 8.615,-6.874 12,-12 3.249,-4.919 6.071,-9.975 8.4,-15.6 2.405,-5.809 4.673,-15.249 3.36,-21.84 -0.678,-3.399 -2.438,-7.507 -4.561,-11.04 -2.016,-3.354 -3.688,-6.998 -6,-9.6 -2.061,-2.319 -5.071,-3.788 -8.16,-5.52 -6.612,-3.708 -15.399,-8.247 -24.24,-8.88 -8.601,-0.616 -15.667,3.065 -19.92,6.24 -1.314,0.981 -3.646,4.553 -6,4.32 -3.151,-0.313 -2.908,-6.594 -4.319,-9.6 -0.733,-1.562 -2.177,-3.588 -3.12,-4.32 -1.574,-1.221 -5.471,-2.428 -9.12,-2.16 -2.021,0.148 -6.158,1.548 -6,3.36 0.097,1.106 1.669,1.565 2.16,1.92 0.931,0.674 1.782,1.353 2.16,1.92 2.105,3.158 2.295,7.812 1.68,11.04 -0.894,4.685 -3.181,9.255 -5.521,13.2 -3.985,6.718 -8.427,11.012 -14.88,14.4 -6.794,3.566 -14.564,6.96 -24.72,6.96 -10.938,0 -16.906,-4.838 -22.56,-9.6 -6.204,-5.226 -12.391,-11.559 -12.96,-21.84 -0.359,-6.478 0.831,-12.995 4.08,-17.76 0.746,-1.094 2.276,-2.623 3.6,-4.08 1.342,-1.477 2.874,-2.798 4.56,-3.36 5.781,-1.927 12.262,1.865 14.16,4.8 1.11,1.716 1.899,4.581 2.16,6.96 0.431,3.94 -0.55,8.801 0.96,11.52 2.856,5.146 13.557,2.489 17.04,0 1.099,-0.786 2.378,-2.194 3.6,-3.6 2.501,-2.879 4.374,-5.003 5.04,-9.36 0.267,-1.738 0.957,-4.567 -0.96,-5.76 -2.222,-10e-4 -3.861,2.166 -6.24,2.16 -5.911,-0.016 -7.203,-7.567 -8.64,-13.2 -2.197,-8.617 -5.288,-15.683 -11.04,-20.64 -2.791,-2.405 -6.833,-5.066 -12.24,-4.32 -2.236,0.309 -3.95,2.36 -6.96,1.92 -1.678,-0.245 -2.754,-1.796 -2.88,-2.88 -0.411,-3.537 3.061,-5.526 5.76,-6.96 6.527,-3.468 14.208,-4.494 15.12,-12.96 0.221,-2.049 -0.461,-7.103 -2.64,-6.96 -1.322,0.087 -1.97,3.3 -2.64,4.32 -1.059,1.609 -3.123,3.841 -5.041,5.04 -6.718,4.2 -14.045,-0.813 -17.28,-5.04 -2.016,-2.635 -2.313,-6.383 -5.52,-5.28 -1.637,0.563 -3.599,1.527 -5.52,2.4 -4.003,1.82 -6.555,3.616 -9.6,6 -5.025,3.936 -7.798,8.208 -10.32,14.4 -0.833,2.047 -2.254,4.633 -0.96,6.96 2.513,0.033 3.729,-2.02 6.48,-2.16 7.519,-0.384 13.217,7.987 11.28,15.84 -1.099,4.453 -6.022,8.136 -10.56,9.12 -2.043,0.443 -5.081,0.62 -7.68,0.24 -3.971,-0.58 -7.525,-2.809 -11.52,-3.12 -3.831,-0.298 -7.794,-0.237 -11.76,1.68 -2.086,1.008 -3.391,3.083 -5.04,4.8 -1.559,1.623 -3.387,3.106 -4.56,4.8 -3.554,5.134 -5.768,13.353 -6.24,20.4 -0.105,1.567 -0.107,3.321 0,4.8 0.384,5.273 1.864,10.639 4.8,14.88 3.728,5.384 9.303,11.577 17.76,9.6 3.17,-0.741 7.333,-3.031 8.4,-5.76 -1.287,-1.639 -3.304,-1.722 -4.8,-2.64 -1.133,-0.695 -2.25,-1.636 -3.12,-2.64 -3.08,-3.556 -3.939,-11.687 -1.68,-17.28 1.312,-3.247 4.892,-7.65 7.68,-8.88 4.655,-2.054 12.277,-1.62 16.56,0 6.947,2.627 13.489,10.268 16.8,17.76 1.209,2.736 2.804,5.554 3.12,8.4 0.639,5.759 -0.515,10.493 -1.92,13.92 -3.618,8.824 -9.882,13.914 -15.6,20.16 -2.982,3.257 -6.057,5.737 -9.84,7.92 -3.677,2.123 -7.589,4.161 -11.52,6.48 -3.67,2.165 -7.514,4.59 -11.76,6 -2.285,0.759 -4.716,1.276 -6.96,1.92 -2.363,0.678 -4.454,1.486 -6.72,2.4 -4.376,1.766 -8.856,2.857 -12.72,5.28 -3.629,2.275 -7.567,4.471 -10.56,7.44 -1.195,1.186 -2.343,2.866 -3.6,4.32 -5.21,6.029 -8.971,12.596 -11.52,20.88 -0.679,2.205 -0.945,4.393 -1.2,6.72 -0.509,4.639 -1.346,9.788 -0.96,14.88 0.883,11.646 4.898,25.852 12.24,31.2 5.07,3.694 12.41,6.252 19.2,7.68 7.532,1.584 15.307,3 24.24,2.16 0.745,-0.07 2.042,-0.268 2.88,-0.48 2.173,-0.55 3.526,-2.428 5.52,-3.36 1.279,-0.598 2.876,-1.13 4.32,-1.68 4.156,-1.582 9.523,-3.229 13.68,-4.32 3.176,-0.833 6.993,-1.382 10.08,-1.92 1.051,-0.183 3.511,-0.97 5.28,-0.72 1.469,0.208 3.154,1.102 2.64,3.36 -0.482,2.122 -3.768,1.668 -6.72,2.16 -1.995,0.332 -4.256,1.167 -6.48,1.68 -2.274,0.525 -4.558,1.054 -6.72,1.68 -1.957,0.566 -3.854,1.61 -5.76,2.4 -4.761,1.974 -9.16,3.419 -10.32,8.16 -0.614,2.509 -0.365,6.673 1.92,8.4 1.439,1.088 3.426,0.038 5.28,1.92 1.627,1.651 1.075,6.822 1.2,10.8 0.264,8.411 1.416,13.295 4.8,19.2 0.877,1.531 5.28,6.679 1.44,7.68 -2.222,0.58 -3.255,-1.963 -5.52,-2.88 -1.562,-0.632 -3.956,-1.245 -5.76,-1.439 -3.241,-0.35 -5.57,1.062 -6.96,-1.681 0.61,-1.79 3.574,-1.227 5.04,-2.16 -0.951,-1.426 -3.078,-1.836 -5.04,-2.159 -4.072,-0.673 -9.01,-0.976 -13.2,-1.2 -2.133,-0.114 -4.681,0.449 -5.76,-1.44 1.386,-2.43 5.201,-1.394 8.4,-1.2 1.633,0.1 3.293,0.166 4.8,0.24 1.521,0.075 3.374,0.478 4.08,-0.72 -2.053,-1.754 -5.315,-2.532 -8.4,-3.12 -3.237,-0.617 -6.889,-1.206 -10.56,-0.96 -6.083,0.408 -13.685,1.072 -19.44,1.68 -1.824,0.193 -4.42,1.283 -5.52,-0.72 0.846,-2.594 4.037,-1.947 6.24,-2.16 7.268,-0.7 15.497,-2.176 22.8,-1.92 1.41,0.05 2.699,0.578 4.08,0.72 3.748,0.386 7.253,1.083 10.56,1.681 -0.833,-1.927 -3.287,-1.968 -5.28,-2.4 -6.404,-1.388 -13.969,-3.819 -21.6,-3.36 -2.94,0.177 -5.98,0.782 -9.12,0.96 -3.097,0.176 -5.986,0.836 -8.88,1.199 -1.994,0.251 -4.243,0.156 -5.52,0.48 -2.48,0.628 -4.802,1.846 -7.2,2.64 -2.477,0.82 -4.855,2.545 -7.44,2.16 0.388,-2.457 3.425,-3.45 5.76,-4.32 2.337,-0.87 4.8,-2.224 7.2,-2.879 3.673,-1.004 8.467,-1.613 12.96,-2.16 2.139,-0.261 4.484,-0.537 6.72,-0.72 2.438,-0.2 4.845,-0.774 6.96,-0.72 1.813,0.047 3.881,0.54 5.76,0.72 6.323,0.607 11.765,2.505 17.28,2.4 -0.973,-1.731 -3.352,-2.267 -5.28,-2.88 -4.298,-1.367 -8.676,-2.62 -13.68,-3.12 -2.556,-0.256 -5.26,-0.723 -7.68,-0.72 -2.222,0.002 -4.353,0.799 -6.48,0.96 -8.681,0.658 -14.855,1.412 -21.36,3.6 -12.442,4.185 -22.271,11.162 -29.28,20.64 -1.839,2.487 -3.008,5.093 -4.56,7.92 -1.502,2.739 -3.888,5.266 -4.08,8.641 1.926,-0.62 2.663,-2.546 3.601,-4.317 z m 162,-62.16 c 5.721,-6.158 9.433,8.797 3.841,9.6 -4.505,0.646 -4.185,-5.646 -3.841,-9.6 z m -4.32,0.96 c 2.856,-0.46 3.067,5.549 0.48,5.76 -2.459,0.2 -3.659,-5.248 -0.48,-5.76 z m 16.081,-38.64 c 2.903,-0.854 3.174,4.062 0.96,4.32 -1.916,0.223 -3.65,-3.53 -0.96,-4.32 z m -78.721,-12.24 c -2.26,-0.66 -2.116,-4.939 0.24,-5.76 5.31,-1.851 4.877,7.252 -0.24,5.76 z m 62.16,15.36 c 3.018,-0.33 5.091,1.438 4.8,4.32 -0.222,2.201 -3.675,4.508 -6,4.32 -2.202,-0.178 -4.334,-2.36 -3.6,-5.28 0.414,-1.644 2.138,-3.069 4.8,-3.36 z M 261.721,221 c -2.31,-0.064 -3.671,-4.749 -0.72,-5.52 3.672,-0.959 3.914,5.609 0.72,5.52 z m -5.04,-30.72 c 3.447,-1.841 5.85,3.581 3.12,5.52 -3.736,2.654 -7.064,-3.8 -3.12,-5.52 z m -8.64,40.801 c 2.319,-0.5 4.134,0.311 4.56,2.16 1.054,4.581 -6.688,8.207 -7.92,3.6 -0.771,-2.883 0.89,-5.228 3.36,-5.76 z m -18.96,21.359 c 1.197,-1.26 3.099,-1.24 5.76,-1.44 3.157,3.131 1.192,8.59 -2.4,9.12 -4.191,0.619 -6.04,-4.86 -3.36,-7.68 z m -0.96,42.241 c -3.327,1.111 -6.646,-0.833 -7.2,-3.84 -0.959,-5.201 2.919,-10.595 9.12,-8.88 4.22,3.084 2.379,11.284 -1.92,12.72 z M 233.4,275.96 c -1.998,-1.202 -2.585,-5.524 -0.48,-7.2 2.678,-2.131 7.538,0.775 10.8,-0.72 1.967,-3.315 -0.406,-9.279 1.2,-12.72 1.104,-2.366 4.679,-3.077 7.44,-1.68 1.263,3.537 -0.287,9.887 0.96,13.44 2.456,1.704 8.458,-0.138 11.28,1.2 2.23,5.273 -0.25,8.031 -5.04,8.16 -2.078,0.056 -4.055,-0.991 -5.52,-0.24 -1.487,0.762 -1.306,4.617 -1.2,7.68 0.116,3.367 0.121,6.017 0.24,8.64 0.275,6.059 0.827,12.22 -0.24,16.56 -1.692,0.903 -4.314,1.972 -6.24,1.2 -2.685,-1.077 -1.898,-5.046 -1.68,-8.88 0.273,-4.805 -0.057,-12.15 -0.24,-16.32 -0.128,-2.91 0.416,-6.871 -0.48,-8.4 -2.793,-1.656 -7.564,1.228 -10.8,-0.72 z m -20.879,60.001 c -3.204,-0.258 -3.352,-8.088 -0.48,-9.12 4.366,-1.57 6.07,9.57 0.48,9.12 z m 8.879,-3.12 c -2.959,0.251 -3.452,-7.178 -0.72,-7.92 3.837,-1.042 3.337,7.698 0.72,7.92 z"
   id="path748" />
		<path
   fill="none"
   d="m 250.44,351.081 c 4.873,-0.424 3.632,-8.186 3.6,-12.72 -1.175,-1.127 -3.327,-0.717 -4.08,0.48 0.291,3.612 -0.79,9.216 0.48,12.24 z"
   id="path750" />
		<path
   fill="none"
   d="m 433.321,401.001 c 3.425,-0.924 6.477,-3.202 9.12,-5.521 5.32,-4.666 10.545,-9.248 15.359,-14.159 2.379,-2.428 5.442,-4.749 6.24,-8.16 -0.16,0 -0.32,0 -0.48,0 -2.248,0.323 -6.015,2.996 -8.88,4.8 -4.917,3.096 -11.413,5.859 -17.279,8.64 -2.82,1.337 -7.591,2.91 -7.921,5.04 -0.196,1.272 0.879,3.382 1.44,5.04 0.586,1.725 1.119,3.621 2.401,4.32 z"
   id="path752" />
		<path
   fill="none"
   d="m 418.201,404.361 c 3.54,1.386 6.063,4.494 10.319,5.039 1.804,-2.821 0.75,-6.703 -0.239,-10.079 -0.47,-1.603 -1.053,-3.237 -1.681,-4.561 -0.736,-1.551 -1.811,-2.675 -2.399,-3.84 -1.272,-2.516 -2.392,-6.537 -5.761,-5.28 -4.84,1.807 -8.479,9.942 -5.52,17.28 1.835,0.953 3.596,0.781 5.281,1.441 z"
   id="path754" />
		<path
   fill="none"
   d="m 148.92,461.961 c 3.114,1.344 7.321,0.22 10.8,-0.479 1.633,-0.329 3.282,-0.89 4.8,-1.44 1.58,-0.572 3.653,-0.828 4.08,-2.4 -2.071,-1.215 -5.357,-1.465 -8.16,-1.439 -5.13,0.044 -10.569,2.179 -11.52,5.758 z"
   id="path756" />
		<path
   fill="none"
   d="m 361.081,444.441 c 1.011,-2.357 2.137,-5.079 2.64,-7.44 -0.188,-0.053 -0.279,-0.201 -0.24,-0.48 -0.502,-0.739 -2.075,-0.534 -2.64,0 -1.518,2.38 -2.024,5.489 -3.12,8.16 -0.601,1.465 -2.197,2.814 -1.439,4.561 2.83,0.451 3.883,-2.666 4.799,-4.801 z"
   id="path758" />
		<path
   fill="none"
   d="m 337.081,451.161 c 1.461,1.606 4.309,1.229 6.72,0.96 2.381,-0.267 5.443,-0.464 6.96,-1.44 1.77,-1.139 2.548,-4.593 3.36,-6.72 1.005,-2.633 2.716,-5.225 1.92,-7.68 -1.415,-1.085 -3.223,-0.634 -5.04,-0.48 -4.372,0.369 -9.663,0.71 -12.96,2.16 0.144,1.813 1.191,2.213 1.199,3.84 0.016,2.943 -3.274,5.851 -2.159,9.36 z"
   id="path760" />
		<path
   fill="none"
   d="m 314.28,461.481 c 0.062,2.146 3.479,4.475 5.28,4.319 2.859,-0.246 6.263,-6.277 7.44,-8.16 0.905,-1.448 2.349,-3.089 3.12,-4.8 0.673,-1.493 2.128,-4.853 0.239,-5.76 -3.323,1.489 -5.463,3.56 -9.12,6.72 -1.89,1.636 -7.035,5.012 -6.959,7.681 z"
   id="path762" />
		<path
   fill="none"
   d="m 434.521,430.281 c -2.029,-3.81 -6.621,-7.498 -9.84,-10.08 -4.92,-3.948 -10.208,-6.208 -16.8,-8.88 -4.814,-1.952 -9.722,-3.75 -14.64,-5.28 -2.464,-0.767 -5.367,-1 -8.4,-1.44 -2.718,-0.394 -5.643,-1.008 -8.64,-1.2 -4.676,-0.299 -15.194,-1.72 -18.721,0.24 -2.547,1.416 -3.173,6.078 -5.76,8.641 -0.332,0.329 -0.771,0.678 -1.2,0.96 -5.497,3.614 -13.593,1.418 -15.6,-2.641 -1.172,-2.37 -0.543,-5.259 -1.92,-8.16 -0.644,-0.49 -2.832,-0.117 -3.36,0 -9.407,2.099 -19.534,4.504 -28.08,6.96 -5.68,1.633 -11.557,2.68 -17.04,4.32 -6.933,2.074 -14.248,4.765 -20.4,7.681 -3.373,1.598 -6.931,2.479 -10.32,3.84 -20.533,8.241 -38.3,18.324 -56.16,28.56 -6.217,3.563 -12.908,6.025 -19.92,8.4 -5.941,2.012 -11.015,3.917 -17.76,5.04 -6.11,1.017 -11.173,1.614 -18,1.92 -1.536,0.068 -3.322,0.356 -5.04,0.479 -2.007,0.145 -3.934,-0.273 -5.28,0.24 -1.645,0.629 -3.278,3.323 -3.6,6.48 -0.423,4.148 0.872,10.601 3.36,12 1.657,0.932 6.973,0.922 9.6,0.72 3.326,-0.257 10.222,-1.612 11.52,-3.84 1.087,-1.865 -0.269,-4.029 0.48,-5.76 0.575,-1.33 4.925,-3.292 6.96,-3.841 1.915,-0.516 4.609,-0.747 7.2,-0.96 2.646,-0.217 5.272,-0.785 6.48,-0.479 1.304,0.329 2.955,1.911 3.36,2.88 0.814,1.951 -0.405,3.608 0.72,6.479 2.079,0.517 3.405,-0.921 5.76,-1.199 1.303,-0.154 3.407,0.051 4.8,-0.24 1.819,-0.381 3.604,-1.412 5.52,-2.16 1.87,-0.729 3.901,-1.229 5.76,-1.92 3.69,-1.37 7.01,-3.284 10.32,-5.04 3.408,-1.808 7.059,-3.171 10.56,-4.8 7.18,-3.341 13.374,-6.976 20.4,-10.32 3.38,-1.609 6.426,-3.927 9.84,-5.52 6.835,-3.19 13.176,-7.385 20.64,-10.08 7.458,-2.694 15.371,-5.165 23.52,-7.2 8.107,-2.025 16.448,-4.241 24.96,-5.76 8.688,-1.551 17.78,-2.696 27.36,-3.36 9.353,-0.648 19.059,-1.969 29.04,-1.2 3.095,0.238 6.332,0.81 9.359,1.44 2.862,0.597 5.665,1.96 8.641,2.399 1.655,0.245 3.013,-0.019 4.56,0.48 2.34,0.755 4.65,2.769 6.96,4.8 2.19,1.927 4.764,4.349 5.76,6.24 3.945,7.491 0.54,17.738 -5.76,21.6 -1.772,1.087 -4.409,1.834 -6.72,3.12 -2.016,1.122 -4.519,2.901 -6.72,3.36 -1.565,0.326 -2.888,-0.358 -4.561,0.479 -1.049,2.66 0.235,5.528 0.96,8.16 0.729,2.649 1.138,5.537 2.4,7.681 6.522,1.513 11.991,0.239 17.76,-0.961 6.507,-1.353 9.6,-2.494 13.92,-5.76 4.116,-3.111 6.229,-4.709 9.12,-8.88 3.674,-5.299 8.222,-12.281 8.88,-19.44 0.595,-6.466 -1.598,-7.367 -3.6,-12 -1.082,-2.504 -1.66,-5.363 -2.638,-7.198 z m -211.44,21.84 c -0.435,3.76 -8.674,6.206 -9.6,2.16 -0.514,-2.247 1.087,-3.54 3.84,-3.36 1.412,-1.558 1.845,-3.075 4.08,-2.4 1.115,0.336 1.84,2.211 1.68,3.6 z m 63.6,-32.88 c 0.325,-1.595 1.438,-1.885 4.32,-1.92 1.842,-0.023 3.745,-0.115 3.84,2.399 0.174,4.662 -9.056,3.916 -8.16,-0.479 z m 115.92,-5.28 c -1.19,2.051 -7.743,0.741 -8.16,-2.16 -0.173,-1.208 -0.032,-1.461 0.721,-1.92 1.117,-0.681 1.505,0.803 2.88,0.96 0.952,0.108 1.939,-0.617 2.64,-0.479 1.796,0.352 2.738,2.189 1.919,3.599 z m 3.6,62.4 c -2.154,1.886 -7.228,1.441 -7.92,-0.96 -1.314,-4.557 4.76,-6.724 8.399,-4.32 1.195,2.083 0.962,4.019 -0.479,5.28 z m 23.52,-19.68 c -0.092,-1.413 0.333,-3.15 2.4,-3.6 1.688,-0.367 4.076,1.395 4.08,3.6 0.006,3.957 -6.229,3.853 -6.48,0 z"
   id="path764" />
		<path
   fill="none"
   d="m 323.161,439.881 c -5.142,0.482 -10.057,1.733 -16.08,3.12 -2.841,0.654 -13.728,2.417 -13.2,6 0.285,1.938 3.663,1.849 6.479,2.16 3.271,0.361 5.264,1.215 7.681,1.2 6.063,-0.037 9.047,-3.627 12.72,-6.24 2.48,-1.766 5.865,-3.225 6.24,-6 -0.607,-0.915 -2.871,-0.331 -3.84,-0.24 z"
   id="path766" />
		<path
   fill="none"
   d="m 388.201,490.281 c -0.328,-2.27 -0.996,-4.479 -1.44,-6.721 -0.848,-4.276 -1.358,-8.839 -3.84,-12.239 -1.109,-0.31 -1.805,0.33 -2.16,0.479 -6.412,2.706 -11.755,5.235 -8.4,12.96 1.35,3.107 3.77,6.124 5.521,9.601 1.678,3.332 3.382,6.826 5.04,10.319 2.511,5.292 5.088,10.313 7.44,15.36 0.689,1.48 1.153,4.031 3.359,3.84 1.04,-2.129 0.109,-4.571 -0.24,-6.72 -1.515,-9.326 -3.978,-17.875 -5.28,-26.879 z"
   id="path768" />
		<path
   fill="none"
   d="m 446.281,446.361 c -2.412,0.896 -1.441,5.993 -0.721,8.159 5.522,0.568 11.731,-0.377 15.841,-1.68 1.416,-0.448 3.356,-0.845 3.6,-2.399 -3.272,-1.608 -11.476,-3.783 -15.84,-4.08 -1.069,-0.073 -2.171,-0.264 -2.88,0 z"
   id="path770" />
		<path
   fill="none"
   d="m 392.041,461.241 c 3.257,-1.729 8.475,-3.562 9.359,-6 1.181,-3.251 -0.47,-8.238 -2.64,-10.32 -1.585,-1.521 -5.442,-2.818 -6.96,-1.92 -2.11,1.25 -3.872,2.676 -5.76,3.84 -4.198,2.588 -9.026,4.396 -13.681,6 -2.395,0.826 -4.901,1.334 -7.68,2.16 -7.463,2.22 -16.114,3.052 -24.96,4.32 -2.455,0.352 -6.404,0.512 -8.4,1.439 -2.067,0.962 -2.726,3.473 -4.319,5.28 -1.423,1.613 -3.512,3.583 -5.761,4.08 -3.426,0.757 -6.649,-0.392 -8.399,-2.4 -0.985,-1.13 -1.394,-2.89 -1.92,-4.319 -0.547,-1.485 -0.985,-3.6 -2.16,-4.32 -1.439,-0.884 -5.909,-0.701 -9.12,-0.96 -3.645,-0.294 -6.838,-0.406 -9.6,-0.72 -2.475,-0.281 -5.689,-1.045 -9.12,-1.2 -3.359,-0.152 -7.119,-0.404 -10.08,-0.24 -6.859,0.38 -14.701,2.444 -18.96,5.04 -1.744,1.063 -7.999,6.654 -6.96,9.84 0.563,1.725 10.073,3.939 12.24,3.12 1.395,-0.527 2.385,-3.153 3.12,-4.56 0.782,-1.497 1.592,-3.193 3.84,-3.841 3.016,-0.868 8.327,0.295 11.52,0.721 2.905,0.387 7.109,0.72 8.16,4.8 0.582,2.26 -0.413,3.163 0,6.24 2.782,1.39 7.256,0.499 10.8,0.72 3.661,0.228 7.581,1.511 11.28,1.92 9.036,1 19.744,0.936 29.76,0.48 9.12,-0.415 18.409,-2.194 25.92,-4.32 7.623,-2.158 13.323,-6.136 20.4,-9.84 2.973,-1.555 6.457,-3.118 10.081,-5.04 z"
   id="path772" />
		<path
   fill="none"
   d="m 346.681,519.562 c -1.679,-0.202 -2.957,1.975 -4.8,2.399 -5.1,5.608 -10.08,12.278 -16.8,18.48 -4.108,3.791 -8.5,9.46 -12.48,13.92 -1.383,1.549 -2.992,4.32 -5.04,3.84 -5.119,-1.202 3.723,-8.25 4.32,-8.88 2.419,-2.55 4.135,-5.024 5.52,-7.92 -1.085,-0.802 -2.391,-0.4 -2.64,-1.92 -0.226,-1.378 2.669,-3.792 3.84,-5.04 4.678,-4.988 8.42,-10.48 12.48,-14.88 1.42,-1.54 2.604,-3.395 3.84,-5.04 2.705,-3.604 5.529,-6.801 7.92,-10.32 1.267,-1.865 2.758,-3.655 3.36,-5.76 -2.333,-0.724 -3.341,0.94 -4.561,2.16 -1.188,1.188 -2.198,2.459 -3.12,3.6 -5.151,6.376 -10.629,12.323 -15.359,18.72 -0.876,1.184 -1.841,3.318 -3.841,3.12 -2.017,-2.543 0.966,-4.759 2.16,-6.24 1.482,-1.836 3.163,-3.769 4.561,-5.52 2.991,-3.748 6.902,-6.933 8.16,-11.76 -7.483,-1.08 2.388,-8.083 1.92,-11.28 -1.585,-1.481 -4.127,-0.366 -6,-0.24 -8.073,0.541 -17.488,0.374 -26.641,-0.24 -4.499,-0.302 -9.204,-0.588 -14.16,-1.2 -3.45,-0.426 -6.854,-1.161 -10.08,-1.68 -2.404,-0.386 -5.286,-0.807 -6.959,-0.479 -2.452,0.479 -5.873,4.82 -8.16,6.479 -5.769,4.186 -12.091,7.34 -18,11.28 -3.071,2.048 -5.87,4.771 -9.12,5.76 -2.716,0.827 -4.453,0.735 -5.04,-1.2 -0.65,-2.143 2.479,-4.457 4.32,-6.479 3.776,-4.147 6.886,-7.849 10.32,-12.24 1.271,-1.624 4.847,-4.595 4.32,-6.96 -0.592,-2.661 -6.613,-3.218 -10.08,-3.6 -1.661,-0.184 -3.376,-0.643 -4.8,-0.721 -5.447,-0.298 -9.996,1.44 -13.92,2.88 -8.337,3.059 -18,6.102 -26.16,9.36 -1.879,0.751 -4.314,1.374 -5.04,2.16 -0.864,0.936 -0.491,2.564 -1.68,2.88 -2.437,0.647 -1.583,-2.472 -5.04,-1.439 -1.142,2.556 2.178,3.848 1.44,6 -2.539,-0.157 -3.272,-3.212 -6,-2.4 -1.196,3.909 4.996,4.833 3.84,7.92 -2.777,-0.15 -3.785,-3.189 -6.72,-2.4 0.314,3.875 3.593,5.242 6.96,8.16 1.174,1.018 2.438,2.251 4.08,3.601 1.252,1.028 3.901,2.494 3.36,4.319 -0.333,1.125 -1.85,0.698 -2.4,1.681 0.42,1.955 2.285,2.866 3.6,4.08 2.832,2.613 5.143,5.408 7.92,7.92 1.3,1.176 3.717,1.986 3.6,4.319 -0.187,0.054 -0.279,0.201 -0.24,0.48 -2.783,1.28 -4.405,-1.511 -6,-2.88 -1.875,-1.61 -3.532,-3.486 -5.76,-4.32 -0.268,2.918 2.569,4.409 4.32,6 3.903,3.545 7.776,7.044 11.28,10.8 1.711,1.835 4.071,3.76 4.56,6.48 -2.618,2.134 -4.484,-1.018 -5.76,-2.4 -3.261,-3.533 -6.274,-6.53 -9.6,-9.6 -1.705,-1.573 -3.523,-3.122 -5.52,-4.08 0.255,2.234 2.128,3.84 3.6,5.28 1.619,1.584 3.218,3.181 4.8,4.8 3.085,3.156 6.453,6.208 9.36,9.6 2.921,3.408 5.75,6.883 8.88,10.08 4.071,4.159 8.23,8.181 11.76,12.48 1.998,2.433 5.741,6.675 6.24,9.6 0.899,5.271 -1.179,11.019 1.44,15.12 3.296,0.719 6.368,-1.105 9.12,-2.4 2.721,-1.279 5.244,-2.87 7.68,-4.319 7.759,-4.616 15.269,-8.971 22.56,-13.44 2.444,-1.498 4.58,-3.349 6.96,-5.04 2.387,-1.696 5.014,-2.883 7.44,-4.56 2.426,-1.678 5.052,-3.126 7.439,-4.8 4.759,-3.336 8.807,-7.227 13.2,-10.801 2.234,-1.817 4.38,-3.744 6.24,-5.76 5.864,-6.354 11.609,-12.589 17.28,-18.96 3.819,-4.292 7.809,-8.473 11.04,-13.2 -0.376,-1.578 1.268,-2.143 0.481,-3.36 z m -96.96,64.559 c -2.052,0.372 -2.002,-1.357 -3.36,-1.68 -0.736,2.26 0.917,4.201 0.48,6.96 -0.623,0.817 -1.791,1.089 -3.12,1.2 -1.322,2.438 -0.435,7.085 -3.84,7.439 -1.484,-1.308 -0.266,-3.431 -0.24,-5.04 0.089,-5.442 -2.722,-8.81 -5.52,-12 -1.872,-2.134 -4.815,-3.444 -5.52,-6.24 3.269,-2.728 4.83,3.379 7.92,3.601 0.963,0.069 2.165,-0.963 3.12,-0.96 1.811,0.005 2.896,1.971 4.32,1.92 1.184,-0.042 1.627,-1.44 2.64,-1.68 2.478,0.493 4.429,3.766 3.12,6.48 z m 36.719,-11.28 c -5.813,4.3 -11.245,8.144 -17.28,12.48 -2.672,1.92 -5.694,5.143 -9.36,4.32 -0.854,-2.32 1.367,-3.158 2.64,-4.08 1.313,-0.951 2.913,-2.127 4.08,-3.12 5.173,-4.404 10.709,-7.929 16.32,-12.48 2.896,-2.349 6.541,-5.183 9.12,-5.76 0.766,-0.206 0.742,0.378 1.199,0.48 -0.409,4.017 -3.864,6.048 -6.719,8.16 z"
   id="path774" />
		<path
   fill="none"
   d="m 251.88,497.241 c 7.881,-4.879 14.504,-10.194 20.88,-16.32 2.356,-2.264 5.548,-5.096 6.24,-8.64 -3.176,-2.772 -11.257,-3.296 -14.641,-0.96 -1.701,1.174 -2.932,4.752 -4.32,6.96 -3.078,4.896 -6.182,9.073 -8.88,13.68 -1.498,2.558 -3.512,4.575 -4.32,7.2 1.933,0.383 3.579,-1.015 5.041,-1.92 z"
   id="path776" />
		<path
   d="m 327.961,116.84 c 1.542,-2.324 0.583,-4.775 0.96,-6.96 1.261,-7.32 7.728,-14.215 12.96,-17.04 4.643,-2.507 11.043,-3.878 17.28,-5.28 3.106,-0.698 6.428,-1.121 9.6,-1.68 3.229,-0.569 6.234,-1.64 9.12,-2.16 1.732,-0.312 3.604,-0.289 5.28,-0.72 6.164,-1.588 10.735,-5.212 14.399,-9.12 3.064,-3.268 4.903,-6.482 6.48,-11.04 0.656,-1.897 1.458,-4.079 1.68,-6.24 0.764,-7.456 -1.289,-13.411 -3.6,-18.48 -1.703,-3.734 -4.218,-7.658 -6.48,-10.08 -3.401,-3.641 -11.602,-9.824 -18.96,-8.16 -8.226,1.86 -15.807,6.673 -20.16,13.2 -1.011,1.516 -2.3,3.086 -3.12,4.56 -2.064,3.714 -4.308,10.005 -2.64,15.6 0.502,1.686 2.544,4.856 5.04,4.56 2.843,-0.338 2.522,-6.556 6.48,-6 1.793,0.252 3.239,4.413 2.88,7.2 -0.397,3.08 -3.794,6.164 -6.24,7.68 -4.825,2.991 -10.842,3.597 -16.08,6 -2.31,1.06 -4.697,1.92 -6.96,3.12 -6.121,3.247 -10.515,8.16 -14.16,13.68 -2.227,3.372 -3.3,5.169 -3.84,9.84 -0.747,6.466 0.701,11.643 3.6,15.6 1.288,1.758 3.03,3.409 6.481,1.92 z m -3.84,-23.76 c 1.778,-2.894 6.225,-7.389 9.359,-10.08 2.221,-1.906 4.052,-3.185 6.721,-4.8 1.103,-0.667 2.183,-1.509 3.119,-1.92 4.006,-1.759 8.988,-2.28 12.961,-3.84 3.951,-1.552 8.416,-4.367 11.279,-7.68 2.094,-2.423 4.364,-5.972 3.12,-10.8 -1.087,-4.219 -4.068,-8.911 -7.68,-9.6 -2.531,-0.483 -4.111,1.036 -6.96,0.48 -0.169,-2.851 1.333,-5.467 2.88,-7.68 2.177,-3.113 4.621,-6.388 8.16,-7.92 2.065,-0.895 5.928,-1.657 8.399,-1.92 6.302,-0.671 11.922,2.47 14.641,5.04 4.887,4.62 8.029,12.879 7.439,21.12 -0.902,12.612 -7.248,20.774 -17.279,24.96 -7.958,3.321 -19.049,3.605 -28.08,6 -3.068,0.813 -6.144,1.614 -8.641,2.64 -7.736,3.177 -11.734,8 -16.32,13.92 -0.697,0.9 -1.506,1.845 -2.159,2.88 -0.589,0.931 -0.787,2.667 -2.4,2.64 -2.467,-3.672 -0.467,-10.336 1.441,-13.44 z"
   id="path778" />
		<path
   d="m 476.281,446.601 c -7.363,-2.507 -11.078,-3.858 -18,-6 -2.84,-0.878 -7.648,-0.768 -9.84,-2.159 -1.303,-0.828 -1.938,-2.861 -2.881,-4.561 -2.044,-3.688 -3.543,-6.406 -5.76,-9.6 -1.086,-1.564 -2.658,-3.312 -2.88,-4.801 -0.23,-1.546 0.519,-2.913 0.72,-4.8 0.165,-1.541 -0.199,-3.406 0.24,-4.8 0.313,-0.991 1.338,-2.005 2.64,-3.12 3.373,-2.887 6.854,-5.607 9.601,-8.16 4.229,-3.929 8.365,-9.03 11.28,-12.239 4.992,-5.498 11.209,-12.267 15.6,-19.681 1.322,-2.232 4.144,-6.486 2.16,-8.16 -1.577,-1.33 -3.931,0.819 -6.24,1.92 -2.481,1.184 -4.454,1.724 -6.24,2.88 -9.326,6.04 -19.901,10.452 -30,15.841 -1.956,1.044 -4.503,3.216 -6.239,3.12 -1.733,-0.096 -3.053,-2.085 -4.32,-3.12 -3.094,-2.526 -6.321,-4.275 -10.08,-5.28 -1.976,-0.528 -4.398,-0.599 -6.24,-1.44 -2.049,-0.936 -4.389,-4.126 -6.479,-6.479 -2.196,-2.471 -4.396,-4.877 -6.24,-6.72 -2.183,-2.184 -4.062,-4.627 -6.24,-6.72 -2.165,-2.08 -4.848,-3.618 -7.2,-5.76 -5.936,-5.405 -12.009,-9.892 -18.479,-13.92 -1.347,-0.838 -2.778,-1.437 -4.32,-2.16 -2.826,-1.325 -5.649,-3.262 -8.64,-4.32 -1.856,-0.657 -4.458,-0.87 -6.96,-1.68 -2.397,-0.776 -4.707,-1.517 -7.2,-1.68 -2.759,-0.181 -5.538,-0.255 -8.4,-0.48 -2.803,-0.22 -5.693,-0.479 -8.4,-0.48 -8.705,0 -16.355,1.654 -22.8,3.84 -2.724,0.924 -5.58,2.338 -6.72,1.68 -1.592,-0.919 -1.551,-6.02 -0.96,-7.68 2.686,-1.222 7.242,0.049 9.6,0 3.563,-0.074 6.047,-1.12 9.36,-1.92 2.781,-0.672 5.781,-1.523 7.2,-2.4 4.944,-3.057 11.285,-7.966 14.399,-14.16 1.566,-3.115 2.705,-6.954 3.601,-10.8 0.903,-3.882 1.94,-8.014 2.399,-12 1.027,-8.918 -1.464,-19.161 -5.76,-24.24 -2.378,-2.812 -8.071,-6.878 -12,-7.44 -4.238,-0.605 -7.92,0.786 -8.88,3.12 -0.865,2.104 -0.096,3.888 -0.479,5.76 -0.56,2.723 -2.332,5.085 -3.841,6.72 -4.569,4.952 -10.835,7.957 -19.92,7.44 -14.352,-0.816 -17.953,-12.289 -16.32,-28.32 0.331,-3.246 2.34,-6.394 4.08,-9.36 2.318,-3.952 4.202,-7.753 6.721,-10.32 1.582,-1.612 3.712,-2.334 5.04,-3.84 1.004,-1.139 1.124,-2.795 2.399,-4.32 1.539,-1.839 5.238,-4.468 8.16,-5.52 4.655,-1.676 7.987,0.495 9.84,3.36 3.501,5.413 3.376,17.509 -0.96,22.56 -1.193,1.391 -5.289,2.045 -5.52,3.84 -0.412,3.199 4.737,3.925 6.96,3.84 2.982,-0.114 6.332,-1.595 8.88,-2.88 9.079,-4.578 15.168,-11.381 16.8,-23.28 1.196,-8.716 0.026,-18.048 2.4,-26.16 1.039,-3.553 3.499,-7.133 5.76,-10.08 5.637,-7.347 13.102,-12.649 24.48,-14.4 7.203,-1.108 16.055,0.569 19.92,3.6 2.996,2.349 6.742,10.407 7.2,14.88 0.387,3.775 -0.826,5.723 -1.681,8.64 -0.583,1.99 -0.788,4.033 -1.68,6 -2.244,4.952 -12.382,12.211 -19.68,8.64 -4.103,-2.007 -4.591,-8.79 -2.881,-13.2 0.881,-2.27 4.524,-4.817 3.841,-7.2 -0.805,-2.801 -5.276,-1.363 -6.96,-0.96 -4.385,1.05 -7.149,2.562 -9.12,4.8 -7.703,8.747 -8.124,28.149 2.399,34.32 6.496,3.81 15.334,3.457 24.24,2.88 8.052,-0.521 15.716,-3.976 20.64,-6.96 8.411,-5.097 13.455,-14.604 17.761,-23.76 1.609,-3.423 3.601,-6.481 4.56,-9.36 3.791,-11.37 1.667,-21.557 -2.16,-30.48 -2.933,-6.839 -6.208,-12.17 -12,-15.6 -1.896,-1.123 -4.063,-1.878 -6.239,-3.12 -2.79,-1.591 -5.109,-3.346 -8.16,-5.04 -2.811,-1.56 -5.859,-3.085 -9.601,-3.84 -3.475,-0.701 -8.643,-1.434 -12.479,-0.96 -1.334,0.165 -3.037,1.094 -5.04,1.68 -1.869,0.546 -4.063,0.648 -5.521,1.2 -1.332,0.504 -5.138,3.752 -6.72,3.36 -0.992,-0.246 -1.44,-2.22 -1.92,-3.36 -2.904,-6.902 -6.853,-10.068 -16.08,-10.32 -3.681,-0.101 -11.072,5.227 -12.96,6.96 -1.64,1.505 -6.378,7.15 -5.04,10.08 1.17,2.562 5.926,0.127 7.68,2.16 2.521,2.921 -0.917,13.39 -1.68,14.88 -1.075,2.101 -3.246,4.697 -5.04,6.96 -1.804,2.276 -3.851,4.638 -5.76,6.24 -6.017,5.048 -15.892,8.621 -27.12,7.2 -4.931,-0.624 -10.132,-3.908 -13.92,-6.48 -6.315,-4.288 -9.13,-9.726 -10.081,-18.48 -0.684,-6.298 -1.118,-12.048 1.44,-16.8 0.922,-1.713 3.805,-5.729 8.16,-5.28 2.469,0.255 3.931,2.321 4.8,4.08 2.247,4.544 0.433,12.438 2.4,16.8 3.382,7.498 17.092,6.94 23.52,2.16 1.682,-1.25 3.221,-3.319 5.04,-5.52 3.864,-4.674 6.354,-9.628 5.521,-18.24 -0.311,-3.207 -1.547,-6.351 -3.12,-9.12 -0.865,-1.522 -3.721,-7.153 -6,-6.48 -1.542,0.456 -1.102,3.554 -1.44,5.521 -0.403,2.35 -0.684,4.719 -2.159,4.8 -2.072,0.113 -3.252,-7.072 -3.841,-9.36 -1.901,-7.395 -4.104,-10.953 -7.439,-15.6 -1.505,-2.097 -3.274,-3.647 -4.561,-5.52 -1.153,-1.494 -5.193,-2.792 -5.279,-5.04 -0.063,-1.639 3.138,-4.351 4.319,-6.48 1.194,-2.151 2.789,-5.222 2.881,-8.16 0.1,-3.23 -1.188,-7.063 -2.641,-9.36 -3.135,-4.958 -8.61,-7.292 -11.76,-11.76 -1.05,-1.489 -3.257,-8.873 -6,-6.72 -3.076,2.414 0.402,7.062 1.92,8.88 1.754,2.102 3.805,4.214 4.08,6.48 0.388,3.196 -1.324,5.974 -3.36,7.68 -1.792,1.502 -4.442,3.05 -7.2,2.88 -2.71,-0.167 -6.423,-3.019 -6.48,-6.48 -0.047,-2.852 3.108,-6.583 3.6,-9.12 0.775,-3.996 0.399,-8.22 -2.88,-9.36 -1.871,1.588 -1.66,5.123 -3.6,7.2 -2.192,2.347 -6.245,3.535 -9.12,5.04 -6.618,3.464 -11.665,6.865 -16.56,11.76 -2.468,2.468 -5.035,4.993 -6.48,7.92 -1.73,3.503 -2.252,8.358 -3.12,13.2 -0.604,3.37 -3.193,11.649 1.2,12.24 1.963,0.264 3.099,-1.667 4.32,-3.12 1.957,-2.33 5.107,-4.938 8.88,-3.36 2.666,1.115 3.883,6.129 2.4,9.36 -0.834,1.818 -2.965,2.423 -5.28,3.12 -4.463,1.343 -7.855,1.811 -12.48,0.96 -1.729,-0.318 -3.271,-1.042 -4.8,-1.2 -7.698,-0.798 -14.763,0.976 -19.44,4.8 -1.283,1.049 -2.287,2.823 -3.6,4.32 -3.624,4.132 -7.561,9.197 -9.12,14.88 -0.871,3.176 -0.64,7.121 -0.96,11.28 -0.285,3.69 -0.486,7.917 0,11.76 0.987,7.803 6.874,14.714 11.76,18.72 6.596,5.408 14.36,6.297 22.8,1.68 2.361,-1.292 4.273,-3.546 6,-6 0.784,-1.113 1.816,-2.296 2.64,-3.6 0.615,-0.973 4.675,-7.316 1.44,-8.64 -1.815,-0.743 -2.628,1.302 -3.6,2.16 -6.638,5.861 -12.261,-4.154 -9.6,-11.52 1.27,-3.516 8.531,-9.075 15.84,-7.44 2.998,0.67 5.681,3.596 8.16,6.24 2.105,2.245 4.634,4.907 6,7.2 3.103,5.208 4.105,13.222 1.92,19.92 -1.696,5.2 -5.783,10.532 -9.6,14.64 -4.069,4.38 -7.642,8.328 -12.96,11.28 -10.726,5.954 -21.151,10.801 -33.84,14.64 -3.123,0.944 -6.185,1.768 -9.12,2.88 -2.914,1.104 -5.386,2.474 -8.16,4.08 -5.163,2.989 -10.252,5.62 -14.4,9.84 -1.919,1.952 -3.507,4.149 -5.28,6.72 -1.631,2.366 -3.844,4.745 -5.04,7.2 -0.621,1.274 -1.023,2.891 -1.68,4.32 -0.642,1.397 -1.382,2.716 -1.92,4.08 -2.129,5.4 -2.709,10.807 -3.12,17.76 -0.365,6.175 0.234,11.305 0.96,16.56 0.38,2.754 0.254,5.905 0.96,8.64 0.721,2.791 2.264,5.412 3.36,7.92 3.85,8.808 9.496,11.988 18,16.08 7.625,3.669 17.499,5.633 27.84,6.24 3.302,0.194 6.977,-0.843 10.56,0.48 0.956,3.278 0.218,6.802 0.96,9.84 0.618,2.53 2.883,4.216 2.4,6.48 -4.657,-1.32 -9.469,-2.561 -14.4,-3.6 -7.777,-1.64 -15.815,-2.274 -24.24,-1.68 -5.453,0.385 -10.364,1.7 -15.12,2.88 -2.579,0.64 -5.341,0.853 -7.44,1.68 -1.269,0.5 -2.316,1.518 -3.6,2.16 -3.963,1.983 -8.544,3.27 -12,5.52 -2.499,1.627 -4.626,4.213 -6.96,6.24 -2.415,2.098 -4.522,4.521 -6.72,6.72 -4.237,4.237 -8.268,10.489 -10.56,16.08 -0.496,1.209 -0.678,2.69 -1.2,4.08 -0.452,1.204 -1.133,2.347 -1.68,3.6 -2.032,4.656 -2.862,8.765 -3.36,14.4 -0.188,2.123 0.055,4.656 -0.72,6.479 -1.045,2.461 -4.067,3.634 -6.24,5.761 -1.887,1.847 -4.152,5.462 -6.72,5.52 -1.333,0.03 -2.812,-1.148 -4.08,-1.92 -3.767,-2.289 -7.948,-4.952 -11.28,-6.72 -11.108,-5.893 -21.325,-9.619 -32.88,-15.12 -2.902,-1.382 -5.094,-2.974 -7.92,-4.08 -2.475,-0.969 -7.91,-2.252 -8.88,0.72 -0.855,2.622 2.207,5.194 4.8,7.2 2.529,1.956 4.96,4.044 6.96,5.521 2.235,1.65 4.099,3.897 6.48,6 2.305,2.035 4.753,4.032 6.72,6 3.866,3.866 8.149,8.635 12.72,12.479 1.931,1.625 4.344,3.343 6.96,5.521 1.371,1.141 6.124,4.791 6.48,6.239 0.852,3.46 -1.48,6.93 -1.68,11.28 -0.178,3.889 0.79,7.562 1.68,10.561 0.749,2.52 2.742,4.981 2.64,7.439 -0.096,2.318 -2.277,5.115 -3.36,7.44 -1.128,2.42 -2.693,5.038 -3.84,7.2 -1.335,2.517 -6.664,14.797 -0.24,15.6 1.86,0.232 3.464,-1.269 5.04,-2.16 3.273,-1.852 6.739,-3.538 9.36,-5.04 1.397,-0.801 2.877,-1.878 5.28,-2.16 1.752,2.092 2.071,4.815 3.12,7.2 1.056,2.399 1.937,5.006 3.12,7.44 0.866,1.779 2.75,3.408 2.88,5.52 0.139,2.246 -1.57,4.877 -2.4,7.44 -0.857,2.646 -1.561,4.962 -2.4,7.439 -1.631,4.815 -3.064,10.4 -4.56,15.12 -2.29,7.225 -3.841,15.46 -6,23.521 -0.702,2.62 -2.007,6.912 -0.24,7.92 2.154,1.228 5.186,-2.432 6.48,-4.08 1.886,-2.402 3.18,-4.674 4.56,-6.48 3.581,-4.687 6.724,-8.479 9.84,-12.479 3.082,-3.958 5.957,-8.259 9.6,-12.72 1.48,-1.813 3.127,-3.923 4.8,-6.24 1.701,-2.357 3.018,-5.183 5.28,-6 1.828,-0.66 3.89,-0.293 6.24,-0.24 4.668,0.105 9.126,-0.58 13.68,-0.72 2.181,-0.067 4.441,-0.587 6.48,0.24 0.162,4.449 -1.014,10.613 -1.92,16.319 -0.599,3.773 -3.996,13.598 0.96,14.4 2.385,0.386 4.701,-2.361 6.48,-5.521 3.489,-6.194 5.216,-11.042 8.16,-17.04 1.118,-2.278 2.629,-7.809 4.8,-7.92 1.253,-0.064 2.693,2.077 4.32,3.84 1.564,1.695 3.114,2.834 4.32,3.841 9.346,7.799 17.189,15.684 25.44,23.76 2.683,2.626 5.815,5.081 8.4,7.92 6.472,7.107 12.062,15.153 18.72,22.32 1.553,1.672 3.203,3.411 3.6,4.8 0.926,3.241 -0.054,6.205 0.24,9.84 0.22,2.717 0.746,6.611 1.92,8.4 2.019,3.073 8.538,3.891 12.48,2.64 7.037,-2.232 13.535,-6.278 20.16,-9.84 6.545,-3.519 12.877,-7.485 18.72,-11.521 2.842,-1.961 5.675,-4.093 8.881,-6 3.116,-1.854 6.4,-3.553 9.359,-5.76 4.36,-3.251 8.636,-6.744 12.48,-10.08 4.144,-3.596 8.272,-6.585 12,-10.56 4.89,-5.215 9.683,-10.646 14.399,-15.84 2.449,-2.697 5.088,-5.189 7.2,-7.921 2.1,-2.713 4.133,-5.665 6.48,-8.399 2.327,-2.712 4.106,-5.738 6.479,-8.641 2.523,-3.085 4.135,-4.781 6.721,-8.399 2.173,-3.041 5.265,-8.208 7.199,-7.92 1.267,0.188 3.287,4.352 4.32,6 1.548,2.469 3.05,4.071 4.32,6.24 1.516,2.588 2.929,6.628 4.319,9.119 0.976,1.747 2.307,3.225 3.36,4.801 1.029,1.538 1.892,3.202 3.12,5.279 1.661,2.808 4.991,8.934 9.12,6.96 2.324,-1.11 1.61,-7.14 1.439,-10.8 -0.225,-4.839 -0.603,-8.483 -0.96,-11.76 -0.445,-4.094 -0.334,-8.161 -0.72,-12 -0.404,-4.024 -1.459,-8.266 -0.96,-11.28 2.247,-1.658 4.988,-1.839 7.44,-2.399 8.668,-1.983 15.329,-3.175 22.56,-6.96 6.057,-3.171 11.319,-8.688 14.88,-14.641 1.273,-2.129 2.203,-5.13 3.84,-6 1.311,-0.695 3.318,-0.679 5.04,-1.2 8.486,-2.567 15.906,-4.255 24.48,-6.72 2.107,-0.605 7.374,-2.452 7.2,-5.28 -0.173,-2.863 -4.773,-3.009 -7.917,-4.08 z m -46.801,-54.96 c 0.33,-2.13 5.101,-3.703 7.921,-5.04 5.866,-2.78 12.362,-5.544 17.279,-8.64 2.865,-1.804 6.632,-4.477 8.88,-4.8 0.16,0 0.32,0 0.48,0 -0.798,3.411 -3.861,5.732 -6.24,8.16 -4.814,4.911 -10.039,9.493 -15.359,14.159 -2.644,2.318 -5.695,4.597 -9.12,5.521 -1.282,-0.699 -1.815,-2.595 -2.4,-4.32 -0.562,-1.659 -1.637,-3.768 -1.441,-5.04 z m -11.04,-6 c 3.369,-1.257 4.488,2.765 5.761,5.28 0.589,1.165 1.663,2.289 2.399,3.84 0.628,1.323 1.211,2.958 1.681,4.561 0.989,3.376 2.043,7.258 0.239,10.079 -4.256,-0.545 -6.779,-3.653 -10.319,-5.039 -1.686,-0.66 -3.446,-0.488 -5.28,-1.44 -2.96,-7.339 0.68,-15.475 5.519,-17.281 z M 111.72,378.44 c 1.552,-2.827 2.721,-5.433 4.56,-7.92 7.009,-9.478 16.838,-16.455 29.28,-20.64 6.505,-2.188 12.679,-2.942 21.36,-3.6 2.127,-0.161 4.258,-0.958 6.48,-0.96 2.42,-0.003 5.124,0.464 7.68,0.72 5.003,0.5 9.381,1.752 13.68,3.12 1.928,0.613 4.307,1.149 5.28,2.88 -5.515,0.105 -10.958,-1.793 -17.28,-2.4 -1.879,-0.18 -3.947,-0.673 -5.76,-0.72 -2.115,-0.055 -4.521,0.52 -6.96,0.72 -2.236,0.184 -4.581,0.459 -6.72,0.72 -4.493,0.547 -9.287,1.156 -12.96,2.16 -2.4,0.656 -4.863,2.009 -7.2,2.879 -2.335,0.87 -5.372,1.863 -5.76,4.32 2.584,0.385 4.963,-1.34 7.44,-2.16 2.398,-0.794 4.72,-2.012 7.2,-2.64 1.277,-0.324 3.526,-0.229 5.52,-0.48 2.894,-0.363 5.783,-1.023 8.88,-1.199 3.14,-0.179 6.18,-0.783 9.12,-0.96 7.631,-0.459 15.196,1.972 21.6,3.36 1.993,0.433 4.447,0.474 5.28,2.4 -3.307,-0.598 -6.812,-1.295 -10.56,-1.681 -1.381,-0.142 -2.67,-0.67 -4.08,-0.72 -7.303,-0.256 -15.532,1.22 -22.8,1.92 -2.203,0.213 -5.394,-0.434 -6.24,2.16 1.1,2.003 3.696,0.913 5.52,0.72 5.755,-0.607 13.357,-1.271 19.44,-1.68 3.671,-0.246 7.323,0.343 10.56,0.96 3.085,0.588 6.348,1.366 8.4,3.12 -0.706,1.197 -2.559,0.795 -4.08,0.72 -1.507,-0.074 -3.167,-0.141 -4.8,-0.24 -3.199,-0.193 -7.014,-1.229 -8.4,1.2 1.08,1.89 3.627,1.326 5.76,1.44 4.19,0.225 9.127,0.527 13.2,1.2 1.962,0.323 4.089,0.733 5.04,2.159 -1.466,0.934 -4.43,0.37 -5.04,2.16 1.39,2.742 3.719,1.331 6.96,1.681 1.805,0.194 4.198,0.808 5.76,1.439 2.265,0.917 3.298,3.46 5.52,2.88 3.84,-1.001 -0.563,-6.148 -1.44,-7.68 -3.384,-5.905 -4.536,-10.789 -4.8,-19.2 -0.125,-3.978 0.428,-9.148 -1.2,-10.8 -1.854,-1.882 -3.841,-0.832 -5.28,-1.92 -2.285,-1.727 -2.534,-5.891 -1.92,-8.4 1.16,-4.741 5.559,-6.186 10.32,-8.16 1.906,-0.79 3.804,-1.833 5.76,-2.4 2.162,-0.626 4.446,-1.155 6.72,-1.68 2.224,-0.513 4.485,-1.348 6.48,-1.68 2.952,-0.491 6.237,-0.038 6.72,-2.16 0.514,-2.259 -1.171,-3.153 -2.64,-3.36 -1.769,-0.25 -4.229,0.537 -5.28,0.72 -3.087,0.538 -6.904,1.086 -10.08,1.92 -4.157,1.091 -9.524,2.738 -13.68,4.32 -1.443,0.55 -3.041,1.082 -4.32,1.68 -1.994,0.932 -3.347,2.81 -5.52,3.36 -0.837,0.212 -2.135,0.41 -2.88,0.48 -8.933,0.84 -16.708,-0.576 -24.24,-2.16 -6.79,-1.428 -14.13,-3.986 -19.2,-7.68 -7.342,-5.348 -11.357,-19.555 -12.24,-31.2 -0.386,-5.092 0.451,-10.241 0.96,-14.88 0.255,-2.327 0.521,-4.515 1.2,-6.72 2.549,-8.284 6.31,-14.851 11.52,-20.88 1.257,-1.454 2.404,-3.134 3.6,-4.32 2.993,-2.969 6.931,-5.165 10.56,-7.44 3.864,-2.423 8.344,-3.515 12.72,-5.28 2.266,-0.914 4.357,-1.722 6.72,-2.4 2.244,-0.644 4.675,-1.161 6.96,-1.92 4.246,-1.41 8.089,-3.835 11.76,-6 3.931,-2.319 7.843,-4.357 11.52,-6.48 3.783,-2.184 6.858,-4.663 9.84,-7.92 5.718,-6.246 11.982,-11.335 15.6,-20.16 1.405,-3.427 2.56,-8.162 1.92,-13.92 -0.316,-2.846 -1.911,-5.664 -3.12,-8.4 -3.311,-7.492 -9.854,-15.133 -16.8,-17.76 -4.283,-1.62 -11.905,-2.054 -16.56,0 -2.788,1.23 -6.368,5.633 -7.68,8.88 -2.26,5.593 -1.4,13.724 1.68,17.28 0.87,1.004 1.987,1.945 3.12,2.64 1.497,0.918 3.513,1.001 4.8,2.64 -1.068,2.729 -5.23,5.019 -8.4,5.76 -8.457,1.978 -14.032,-4.216 -17.76,-9.6 -2.937,-4.242 -4.417,-9.607 -4.8,-14.88 -0.107,-1.479 -0.105,-3.233 0,-4.8 0.473,-7.047 2.686,-15.266 6.24,-20.4 1.173,-1.694 3.001,-3.178 4.56,-4.8 1.649,-1.716 2.954,-3.792 5.04,-4.8 3.965,-1.917 7.929,-1.978 11.76,-1.68 3.995,0.311 7.549,2.541 11.52,3.12 2.599,0.379 5.637,0.203 7.68,-0.24 4.538,-0.983 9.461,-4.667 10.56,-9.12 1.937,-7.854 -3.761,-16.224 -11.28,-15.84 -2.751,0.141 -3.967,2.193 -6.48,2.16 -1.294,-2.327 0.126,-4.913 0.96,-6.96 2.522,-6.192 5.295,-10.465 10.32,-14.4 3.045,-2.384 5.597,-4.18 9.6,-6 1.921,-0.873 3.883,-1.837 5.52,-2.4 3.208,-1.103 3.504,2.646 5.52,5.28 3.234,4.227 10.562,9.24 17.28,5.04 1.917,-1.199 3.982,-3.431 5.041,-5.04 0.67,-1.02 1.317,-4.233 2.64,-4.32 2.179,-0.143 2.86,4.911 2.64,6.96 -0.911,8.466 -8.593,9.492 -15.12,12.96 -2.699,1.434 -6.171,3.423 -5.76,6.96 0.126,1.083 1.202,2.635 2.88,2.88 3.011,0.44 4.725,-1.611 6.96,-1.92 5.407,-0.747 9.449,1.915 12.24,4.32 5.752,4.957 8.843,12.023 11.04,20.64 1.437,5.633 2.729,13.185 8.64,13.2 2.379,0.006 4.019,-2.161 6.24,-2.16 1.917,1.193 1.227,4.022 0.96,5.76 -0.666,4.357 -2.539,6.481 -5.04,9.36 -1.222,1.406 -2.501,2.814 -3.6,3.6 -3.483,2.489 -14.184,5.146 -17.04,0 -1.51,-2.719 -0.529,-7.58 -0.96,-11.52 -0.261,-2.379 -1.05,-5.244 -2.16,-6.96 -1.898,-2.936 -8.379,-6.728 -14.16,-4.8 -1.686,0.562 -3.218,1.883 -4.56,3.36 -1.323,1.458 -2.854,2.986 -3.6,4.08 -3.25,4.766 -4.439,11.283 -4.08,17.76 0.569,10.281 6.756,16.614 12.96,21.84 5.654,4.762 11.622,9.6 22.56,9.6 10.155,0 17.926,-3.394 24.72,-6.96 6.453,-3.388 10.895,-7.682 14.88,-14.4 2.34,-3.945 4.627,-8.515 5.521,-13.2 0.615,-3.229 0.426,-7.882 -1.68,-11.04 -0.378,-0.567 -1.229,-1.246 -2.16,-1.92 -0.491,-0.355 -2.063,-0.814 -2.16,-1.92 -0.158,-1.812 3.979,-3.212 6,-3.36 3.649,-0.268 7.546,0.939 9.12,2.16 0.943,0.732 2.387,2.758 3.12,4.32 1.411,3.006 1.168,9.288 4.319,9.6 2.354,0.233 4.686,-3.338 6,-4.32 4.253,-3.175 11.319,-6.856 19.92,-6.24 8.841,0.633 17.628,5.172 24.24,8.88 3.089,1.732 6.1,3.201 8.16,5.52 2.313,2.602 3.984,6.245 6,9.6 2.123,3.533 3.883,7.641 4.561,11.04 1.313,6.592 -0.955,16.031 -3.36,21.84 -2.329,5.625 -5.151,10.681 -8.4,15.6 -3.385,5.126 -6.902,9.015 -12,12 -7.204,4.219 -14.464,5.935 -25.92,5.76 -3.396,-0.052 -7.479,0.082 -10.08,-0.96 -2.417,-0.969 -6.613,-4.325 -7.68,-6.72 -0.843,-1.892 -1.291,-4.916 -1.44,-7.2 -0.205,-3.132 0.396,-6.684 1.44,-9.36 0.995,-2.549 2.31,-4.901 5.04,-5.76 0.918,2.558 0.332,5.045 0.72,6.96 1.749,8.634 13.357,16.476 24.24,10.32 7.788,-4.406 11.871,-14.555 12.72,-26.4 1.626,-22.7 -25.511,-28.854 -44.64,-20.4 -5.897,2.606 -12.028,4.654 -15.601,7.92 -1.11,1.016 -2.228,2.824 -3.359,4.56 -3.069,4.707 -6.365,10.278 -5.761,18.72 0.348,4.841 1.495,9.289 1.2,13.68 -0.632,9.436 -4.746,15.627 -10.56,20.4 -1.513,1.242 -3.25,2.817 -5.521,2.64 -0.549,-3.366 1.12,-6.312 1.2,-9.84 0.151,-6.637 -2.859,-13.516 -6.96,-17.04 -8.64,-7.427 -20.664,1.235 -26.64,6.72 -3.167,2.907 -6.411,6.003 -8.88,9.6 -5.185,7.552 -8.575,17.654 -9.36,27.84 -0.518,6.719 2.408,12.305 5.52,16.8 4.633,6.692 15.882,9.329 26.4,8.64 5.581,-0.366 9.233,-1.93 12.72,-4.8 3.157,-2.599 5.724,-4.933 7.44,-9.12 0.927,-2.26 0.856,-5.235 3.12,-7.2 18.764,2.799 17.149,38.833 6.96,50.88 -1.393,1.646 -4.56,4.328 -6.72,5.52 -7.31,4.034 -21.998,4.903 -32.16,2.64 -2.9,-0.646 -5.525,-2.045 -8.4,-2.4 -1.366,-0.168 -2.438,0.135 -4.32,0 -3.399,-0.243 -11.963,-1.23 -11.52,3.36 0.322,3.343 10.606,2.312 13.439,2.88 1.146,0.229 2.072,0.792 3.12,1.2 1.076,0.419 2.144,0.498 2.88,1.2 1.267,1.207 2.01,4.298 2.16,6.96 0.174,3.067 0.005,8.863 -2.16,9.84 -1.721,0.776 -6.974,-1.257 -9.12,-1.68 -3.299,-0.651 -6.899,-0.763 -10.08,-0.96 -2.609,-0.162 -6.705,-0.525 -10.56,-0.24 -3.52,0.26 -6.862,0.864 -9.84,1.44 -2.781,0.538 -5.482,0.755 -9.6,1.68 -2.484,0.558 -7.823,1.139 -7.92,3.12 -0.106,2.171 2.119,1.435 3.36,3.12 0.429,1.571 -0.147,4.147 1.44,4.56 2.787,-0.173 1.253,-4.667 3.84,-5.04 1.572,3.228 -0.846,10.446 2.64,11.76 2.046,-0.952 1.084,-4.553 1.2,-7.2 0.121,-2.759 0.046,-5.501 1.68,-6.48 2.01,0.1 1.548,2.428 1.68,3.84 0.431,4.621 -0.222,10.585 -0.24,15.12 -0.009,2.104 0.516,3.993 0,5.761 -0.384,1.314 -1.916,3.019 -3.12,4.56 -3.142,4.018 -6.552,9.059 -8.64,13.92 -1.522,3.543 -3.161,7.104 -4.8,10.32 -1.597,3.134 -4.703,6.724 -2.88,10.8 5.462,1.188 4.651,-3.016 5.76,-5.76 1.066,-2.639 3.037,-5.301 4.56,-8.16 1.453,-2.727 2.759,-5.598 4.32,-8.16 2.318,-3.803 4.958,-7.633 7.68,-11.28 4.068,-5.448 9.66,-10.189 14.88,-14.88 8.373,-7.522 18.188,-13.023 29.521,-17.52 5.482,-2.176 11.147,-4.589 16.8,-6.48 6.743,-2.256 12.999,-3.442 19.92,-3.12 3.882,0.181 7.56,0.104 11.28,0.48 9.658,0.977 20.102,4.227 26.88,8.4 3.494,2.151 7.201,4.379 10.32,7.2 0.979,0.886 1.727,2.081 2.88,2.88 1.424,0.987 3.012,1.319 4.319,2.16 5.946,3.823 10.923,10.331 16.08,15.601 1.966,2.008 4.112,4.56 5.521,7.199 0.529,0.993 0.714,2.303 1.2,3.36 0.587,1.278 1.835,2.441 2.399,3.84 1.82,4.505 2.477,13.58 1.92,20.4 -0.187,2.291 -0.396,4.944 -2.88,4.56 -2.804,-0.434 -1.174,-6.945 -1.2,-8.16 -0.041,-1.927 -0.543,-4.297 -0.96,-6.479 -1.543,-8.078 -4.262,-15.182 -8.399,-21.36 -1.443,-2.154 -3.178,-4.298 -4.8,-6.479 -1.616,-2.174 -3.282,-4.45 -5.04,-6 -1.247,-1.1 -2.878,-1.826 -4.08,-2.88 -2.815,-2.469 -5.034,-7.655 -9.84,-6 0.409,2.405 2.739,3.924 4.319,5.28 8.37,7.184 15.923,14.943 20.88,26.16 0.955,2.161 1.627,4.675 2.16,7.2 0.541,2.56 1.416,5.198 1.681,7.68 0.204,1.919 0.529,8.015 -1.2,8.16 -2.006,0.17 -1.558,-5.057 -1.681,-5.76 -0.515,-2.953 -1.759,-5.792 -2.64,-8.64 -1.814,-5.864 -4.19,-10.5 -6.96,-15.36 -1.34,-2.352 -2.913,-4.632 -4.08,-6.96 -1.279,-2.554 -1.531,-5.66 -4.8,-6.48 -3.956,3.405 1.575,7.515 3.12,9.84 4.158,6.262 7.527,13.008 10.08,21.12 0.841,2.676 3.417,10.899 0.239,11.521 -3.979,0.778 -3.574,-8.234 -4.319,-11.28 -0.72,-2.939 -2.141,-6.641 -3.36,-9.6 -0.58,-1.408 -1.229,-3.166 -1.92,-4.561 -0.678,-1.366 -1.587,-3.178 -3.36,-2.88 -1.592,1.88 0.646,4.149 1.44,6 1.711,3.989 3.475,8.511 4.32,13.44 0.386,2.252 1.239,5.423 -0.48,7.439 -2.89,-0.613 -1.979,-4.216 -2.4,-6.479 -0.264,-1.419 -1.937,-7.432 -3.6,-7.2 -2.764,0.385 -0.193,5.049 0.24,7.2 0.207,1.027 0.985,5.3 -0.96,5.52 -3.188,0.36 -0.563,-8.919 -4.08,-8.399 -2.711,0.809 0.265,7.305 -2.4,8.16 -2.305,0.064 -0.849,-3.632 -2.88,-3.841 -1.934,0.31 -1.354,3.459 -3.359,4.08 -1.238,0.384 -2.834,-0.02 -4.08,-0.72 -0.671,-4.335 0.392,-10.001 0,-16.32 -0.319,-5.141 -2.188,-11.546 -4.32,-16.319 -1.042,-2.332 -2.188,-4.256 -3.6,-6.721 -2.09,-3.646 -4.001,-8.197 -9.36,-5.279 -0.64,2.591 0.776,6.399 0.96,9.359 0.484,7.803 -1.121,14.873 -2.88,22.08 -0.484,1.982 -1.069,4.185 -1.92,6.72 -0.795,2.367 -1.339,5.49 -2.4,6.24 -0.931,0.658 -5.021,1.112 -7.44,1.681 -7.097,1.666 -14.832,3.683 -21.359,5.279 -9.448,2.312 -20.236,4.861 -28.08,7.681 -8.286,2.978 -17.125,6.729 -25.68,10.08 -3.821,1.496 -8.351,3.222 -12.72,5.04 -1.864,0.774 -3.768,2.185 -5.76,3.119 -2.094,0.983 -5.196,2.866 -6.72,2.881 -1.017,0.009 -3.565,-0.595 -4.8,-0.96 -4.254,-1.259 -8.233,-3.922 -14.4,-5.521 -4.592,-1.19 -14.55,-1.605 -16.08,-3.84 -0.484,-0.707 -0.7,-2.578 -0.72,-3.12 -0.126,-3.313 1.146,-7.622 2.16,-11.28 2.422,-8.746 5.765,-15.703 10.08,-23.04 1.014,-1.725 2.21,-2.988 1.92,-4.56 -0.177,-0.956 -1.124,-1.974 -2.4,-2.16 -4.388,-0.643 -7.801,4.971 -9.84,7.68 -6.486,8.617 -12.517,16.634 -17.28,26.641 -0.943,1.98 -1.215,4.401 -3.12,5.52 -7.423,-0.729 -14.563,-2.267 -24,-1.68 -3.781,0.234 -7.282,1.335 -11.28,1.92 -1.575,0.23 -3.816,0.391 -5.76,0.72 -2.041,0.346 -4.045,1.326 -5.04,0.96 -1.721,-0.633 -2.435,-4.404 -2.64,-6.24 -0.373,-3.333 0.791,-7.421 -1.44,-9.119 -2.187,0.246 -1.503,2.858 -1.44,4.56 0.07,1.882 0.031,4.078 0.24,6 0.29,2.659 1.669,5.654 -0.24,7.2 -3.27,-0.25 -3.123,-4.394 -3.36,-7.2 -0.532,-6.295 -0.925,-13.781 0,-20.16 0.438,-3.022 1.985,-6.25 0.24,-8.16 -2.446,0.182 -2.503,3.282 -2.88,5.521 -1.174,6.978 -1.325,15.073 -0.72,23.52 0.138,1.919 2.901,9.624 0,10.32 -3.181,0.764 -4.339,-5.56 -4.32,-8.4 0.006,-0.956 0.481,-1.864 0.48,-2.88 -0.004,-2.458 -0.86,-4.946 -0.96,-7.439 -0.139,-3.48 0.908,-6.655 1.44,-9.84 0.342,-2.052 0.313,-3.928 0.72,-5.761 0.367,-1.651 0.886,-3.15 1.44,-4.8 1.021,-3.043 3.151,-6.178 2.16,-9.36 -2.566,-0.11 -2.981,2.699 -3.84,4.32 -0.938,1.771 -1.675,3.697 -3.6,4.32 0.192,-3.378 2.577,-5.904 4.079,-8.644 z m 138.24,-39.599 c 0.753,-1.197 2.905,-1.607 4.08,-0.48 0.032,4.534 1.273,12.296 -3.6,12.72 -1.27,-3.024 -0.189,-8.628 -0.48,-12.24 z m -6.96,0.24 c 0.152,-0.888 1.348,-0.732 2.4,-0.72 1.9,1.625 1.382,6.076 1.2,10.08 -0.24,5.289 0.66,10.554 -4.08,10.8 -1.274,-2.354 0.086,-4.726 0.24,-7.681 0.224,-4.295 -1.611,-9.549 0.24,-12.479 z m 102.48,21.359 c 0.106,-0.213 0.211,-0.429 0.48,-0.479 0.046,-0.272 0.24,-0.134 0.24,0 0.159,0 0.319,0 0.479,0 2.313,3.884 4.724,9.9 5.76,16.56 1.518,9.746 3.579,21.565 -1.439,28.08 -1.143,1.483 -5.713,5.642 -8.4,5.521 -3.51,-0.159 -4.772,-4.72 -4.08,-9.12 0.757,-4.808 3.092,-10.265 4.561,-16.08 1.476,-5.849 2.334,-12.045 2.399,-18.24 0.024,-2.181 -0.553,-4.312 0,-6.242 z M 187.8,424.761 c 0.124,1.985 0.901,4.783 0,6 -1.263,1.707 -5.224,0.835 -7.44,0 -2.32,-0.874 -4.68,-2.309 -5.04,-4.08 -0.58,-2.854 1.41,-7.469 2.88,-10.319 2.731,-5.297 6.245,-11.75 9.36,-16.561 1.859,-2.87 3.824,-5.99 6.48,-7.92 0.08,0 0.16,0 0.24,0 1.131,0.746 0.258,2.124 0,2.88 -0.853,2.501 -2.684,4.858 -3.6,7.68 -0.618,1.903 -0.895,4.294 -1.44,6.48 -1.166,4.68 -1.869,8.927 -1.44,15.84 z m -123.36,4.8 c -2.724,-2.366 -4.941,-4.372 -7.2,-6.239 -3.927,-3.246 -7.119,-5.926 -10.8,-9.36 -1.423,-1.327 -2.932,-1.956 -3.36,-3.6 0,-0.16 0,-0.32 0,-0.48 0.194,-0.046 0.239,-0.24 0.48,-0.24 12.097,2.656 21.213,8.944 31.2,14.4 1.557,0.851 3.408,1.447 3.6,2.64 0.234,1.457 -1.578,3.404 -2.64,5.04 -1.018,1.567 -2.093,3.728 -3.6,3.84 -2.174,0.161 -5.759,-4.332 -7.68,-6.001 z m 13.44,56.64 c -2.562,1.511 -4.504,3.033 -7.44,2.64 -0.127,-2.112 1.352,-4.024 2.88,-6.24 1.171,-1.699 2.782,-4.688 3.84,-5.279 1.863,-1.042 2.723,1.183 4.08,2.16 0.848,0.609 2.795,0.837 2.88,2.159 0.093,1.446 -5.067,3.868 -6.24,4.56 z m 5.76,-30.72 c -1.05,2.916 -2.167,10.039 -5.28,10.319 -3.616,0.326 -6.728,-11.553 -5.28,-17.52 0.328,-1.35 1.218,-2.808 1.92,-4.08 2.667,-4.832 5.224,-10.868 8.64,-14.88 1.5,-1.762 2.617,-2.555 4.8,-2.88 0.633,-0.095 1.248,-0.493 2.4,-0.24 2.158,0.474 5.096,5.114 4.56,8.88 -0.348,2.438 -3.188,4.188 -4.56,6.24 -1.759,2.63 -3.185,6.089 -4.8,9.359 -0.781,1.584 -1.824,3.201 -2.4,4.802 z m 19.2,73.2 c -3.256,4.71 -5.596,8.396 -8.64,12.961 -0.696,1.044 -1.541,2.131 -2.4,3.119 -0.664,0.765 -1.499,2.411 -2.88,1.921 1.121,-4.178 2.858,-9.466 4.56,-15.12 0.77,-2.56 1.162,-5.396 1.92,-7.921 0.637,-2.122 2.083,-8.34 3.6,-8.159 1.905,0.227 2.683,1.267 4.32,2.64 1.169,0.98 3.111,1.958 3.36,3.36 0.407,2.292 -2.399,5.115 -3.84,7.199 z M 147,512.841 c -6.346,4.634 -19.969,6.708 -31.68,5.761 -2.03,-0.165 -4.819,-0.828 -6.24,-1.44 -4.167,-1.795 -8.906,-6.7 -12,-10.56 -4.216,-5.262 -6.48,-10.826 -7.44,-19.44 -0.836,-7.507 -1.969,-16.443 0,-23.28 0.726,-2.52 2.176,-5.286 3.36,-7.92 1.286,-2.858 2.242,-5.819 3.36,-7.68 2.409,-4.01 6.446,-7.647 10.56,-11.28 3.988,-3.521 8.346,-7.034 12.72,-9.12 1.593,-0.76 3.489,-1.161 5.28,-1.92 1.599,-0.677 3.186,-1.652 4.8,-2.16 2.697,-0.849 5.64,-0.948 8.64,-1.439 3.06,-0.501 6.193,-1.465 9.12,-1.681 3.831,-0.281 7.829,-0.157 11.28,0.24 4.369,0.503 8.781,1.28 12,3.12 0.509,1.148 -0.021,2.74 0.48,4.32 0.677,2.132 4.47,5.352 7.92,6.479 3.323,1.086 8.504,1.598 10.8,0.24 2.234,-1.321 1.762,-3.976 2.88,-6.48 2.083,-0.385 5.494,0.404 8.88,0.96 2.161,0.355 6.69,0.7 7.2,2.881 0.602,2.575 -3.556,5.669 -5.28,6.72 -2.845,1.733 -7.057,3.352 -11.28,4.8 -4.332,1.485 -9.468,2.137 -14.16,1.92 -1.894,-0.087 -3.709,-0.547 -5.52,-0.479 -1.79,0.065 -3.436,0.638 -5.28,0.72 -1.751,0.077 -3.361,-0.359 -5.04,-0.48 -10.487,-0.751 -20.4,0.374 -29.28,3.84 -5.642,2.203 -9.659,6.652 -13.68,11.28 -0.988,1.138 -2.204,2.117 -2.64,3.36 -0.439,1.251 -0.529,3.099 -0.72,4.56 -0.545,4.18 0.052,10.119 0.96,13.2 0.704,2.389 2.583,5.047 4.08,7.2 1.425,2.05 3.17,4.54 5.04,6 2.243,1.752 5.079,2.789 7.68,3.84 1.405,0.568 2.855,1.11 4.32,1.44 1.508,0.34 3.204,0.198 4.8,0.72 2.106,0.688 3.356,2.563 5.04,4.08 -0.379,2.498 -0.816,4.941 -0.96,7.678 z m 21.601,-55.2 c -0.427,1.572 -2.5,1.828 -4.08,2.4 -1.518,0.551 -3.167,1.111 -4.8,1.44 -3.479,0.699 -7.686,1.823 -10.8,0.479 0.95,-3.579 6.389,-5.714 11.52,-5.76 2.802,-0.024 6.088,0.226 8.16,1.441 z m 2.159,29.52 c -6.14,13.382 -11.395,26.115 -17.28,39.6 -0.424,0.973 -0.896,2.304 -1.44,3.36 -0.499,0.97 -0.937,2.289 -2.4,2.16 -1.806,-1.469 -0.605,-4.284 -0.24,-6.24 2.008,-10.748 4.134,-21.451 6.24,-32.64 0.861,-4.571 1.138,-11.196 3.84,-12.96 2.562,-1.673 12.223,-2.751 13.44,-0.24 0.84,1.733 -1.412,5.329 -2.16,6.96 z m 175.441,35.76 c -3.231,4.728 -7.221,8.908 -11.04,13.2 -5.671,6.371 -11.416,12.605 -17.28,18.96 -1.86,2.016 -4.006,3.942 -6.24,5.76 -4.394,3.574 -8.441,7.465 -13.2,10.801 -2.388,1.674 -5.014,3.122 -7.439,4.8 -2.427,1.677 -5.054,2.863 -7.44,4.56 -2.38,1.691 -4.516,3.542 -6.96,5.04 -7.292,4.47 -14.801,8.824 -22.56,13.44 -2.437,1.449 -4.959,3.04 -7.68,4.319 -2.751,1.295 -5.824,3.119 -9.12,2.4 -2.619,-4.102 -0.541,-9.849 -1.44,-15.12 -0.499,-2.925 -4.243,-7.167 -6.24,-9.6 -3.53,-4.3 -7.689,-8.321 -11.76,-12.48 -3.13,-3.197 -5.958,-6.672 -8.88,-10.08 -2.907,-3.392 -6.275,-6.443 -9.36,-9.6 -1.583,-1.619 -3.182,-3.216 -4.8,-4.8 -1.471,-1.44 -3.344,-3.046 -3.6,-5.28 1.997,0.958 3.815,2.507 5.52,4.08 3.326,3.069 6.339,6.066 9.6,9.6 1.276,1.383 3.142,4.534 5.76,2.4 -0.489,-2.721 -2.849,-4.646 -4.56,-6.48 -3.504,-3.756 -7.376,-7.255 -11.28,-10.8 -1.751,-1.591 -4.588,-3.082 -4.32,-6 2.228,0.834 3.885,2.71 5.76,4.32 1.595,1.369 3.217,4.16 6,2.88 -0.039,-0.279 0.053,-0.427 0.24,-0.48 0.117,-2.333 -2.3,-3.144 -3.6,-4.319 -2.777,-2.512 -5.088,-5.307 -7.92,-7.92 -1.315,-1.214 -3.18,-2.125 -3.6,-4.08 0.551,-0.982 2.067,-0.556 2.4,-1.681 0.541,-1.825 -2.108,-3.291 -3.36,-4.319 -1.642,-1.35 -2.906,-2.583 -4.08,-3.601 -3.367,-2.918 -6.646,-4.285 -6.96,-8.16 2.935,-0.789 3.943,2.25 6.72,2.4 1.156,-3.087 -5.036,-4.011 -3.84,-7.92 2.728,-0.812 3.461,2.243 6,2.4 0.737,-2.152 -2.582,-3.444 -1.44,-6 3.457,-1.032 2.603,2.087 5.04,1.439 1.189,-0.315 0.816,-1.944 1.68,-2.88 0.726,-0.786 3.161,-1.409 5.04,-2.16 8.16,-3.259 17.823,-6.302 26.16,-9.36 3.924,-1.439 8.473,-3.178 13.92,-2.88 1.424,0.078 3.139,0.537 4.8,0.721 3.467,0.382 9.488,0.938 10.08,3.6 0.527,2.365 -3.049,5.336 -4.32,6.96 -3.435,4.392 -6.544,8.093 -10.32,12.24 -1.841,2.022 -4.97,4.337 -4.32,6.479 0.587,1.936 2.324,2.027 5.04,1.2 3.25,-0.989 6.049,-3.712 9.12,-5.76 5.909,-3.94 12.231,-7.095 18,-11.28 2.288,-1.659 5.708,-6.001 8.16,-6.479 1.673,-0.327 4.555,0.094 6.959,0.479 3.226,0.519 6.63,1.254 10.08,1.68 4.956,0.612 9.661,0.898 14.16,1.2 9.152,0.614 18.567,0.781 26.641,0.24 1.873,-0.126 4.415,-1.241 6,0.24 0.468,3.197 -9.403,10.2 -1.92,11.28 -1.258,4.827 -5.169,8.012 -8.16,11.76 -1.397,1.751 -3.078,3.684 -4.561,5.52 -1.194,1.481 -4.177,3.697 -2.16,6.24 2,0.198 2.965,-1.937 3.841,-3.12 4.73,-6.396 10.208,-12.344 15.359,-18.72 0.922,-1.141 1.932,-2.411 3.12,-3.6 1.22,-1.22 2.228,-2.884 4.561,-2.16 -0.603,2.104 -2.094,3.895 -3.36,5.76 -2.391,3.52 -5.215,6.717 -7.92,10.32 -1.235,1.646 -2.42,3.5 -3.84,5.04 -4.061,4.399 -7.803,9.892 -12.48,14.88 -1.171,1.248 -4.065,3.662 -3.84,5.04 0.249,1.52 1.555,1.118 2.64,1.92 -1.385,2.896 -3.101,5.37 -5.52,7.92 -0.598,0.63 -9.439,7.678 -4.32,8.88 2.048,0.48 3.657,-2.291 5.04,-3.84 3.98,-4.46 8.372,-10.129 12.48,-13.92 6.72,-6.202 11.7,-12.872 16.8,-18.48 1.843,-0.425 3.121,-2.602 4.8,-2.399 0.786,1.218 -0.858,1.783 -0.481,3.36 z m -95.04,-30.96 c 2.698,-4.606 5.802,-8.784 8.88,-13.68 1.388,-2.208 2.619,-5.786 4.32,-6.96 3.383,-2.336 11.465,-1.813 14.641,0.96 -0.692,3.544 -3.884,6.376 -6.24,8.64 -6.376,6.126 -13,11.441 -20.88,16.32 -1.462,0.905 -3.108,2.303 -5.04,1.92 0.806,-2.625 2.821,-4.642 4.319,-7.2 z m 110.4,-15.84 c -7.511,2.126 -16.8,3.905 -25.92,4.32 -10.016,0.455 -20.724,0.52 -29.76,-0.48 -3.699,-0.409 -7.619,-1.692 -11.28,-1.92 -3.544,-0.221 -8.018,0.67 -10.8,-0.72 -0.413,-3.077 0.582,-3.98 0,-6.24 -1.051,-4.08 -5.255,-4.413 -8.16,-4.8 -3.193,-0.426 -8.504,-1.589 -11.52,-0.721 -2.248,0.647 -3.058,2.344 -3.84,3.841 -0.735,1.406 -1.726,4.032 -3.12,4.56 -2.167,0.819 -11.678,-1.396 -12.24,-3.12 -1.039,-3.186 5.216,-8.776 6.96,-9.84 4.259,-2.596 12.101,-4.66 18.96,-5.04 2.961,-0.164 6.721,0.088 10.08,0.24 3.431,0.155 6.646,0.919 9.12,1.2 2.762,0.313 5.955,0.426 9.6,0.72 3.211,0.259 7.681,0.076 9.12,0.96 1.175,0.721 1.613,2.835 2.16,4.32 0.526,1.43 0.935,3.189 1.92,4.319 1.75,2.009 4.974,3.157 8.399,2.4 2.249,-0.497 4.338,-2.467 5.761,-4.08 1.594,-1.808 2.252,-4.318 4.319,-5.28 1.996,-0.928 5.945,-1.088 8.4,-1.439 8.846,-1.269 17.497,-2.101 24.96,-4.32 2.778,-0.826 5.285,-1.334 7.68,-2.16 4.654,-1.604 9.482,-3.412 13.681,-6 1.888,-1.164 3.649,-2.59 5.76,-3.84 1.518,-0.898 5.375,0.399 6.96,1.92 2.17,2.082 3.82,7.069 2.64,10.32 -0.885,2.438 -6.103,4.271 -9.359,6 -3.624,1.922 -7.108,3.484 -10.08,5.04 -7.078,3.704 -12.778,7.682 -20.401,9.84 z m -40.8,-30 c -3.673,2.613 -6.656,6.203 -12.72,6.24 -2.417,0.015 -4.41,-0.839 -7.681,-1.2 -2.816,-0.312 -6.194,-0.223 -6.479,-2.16 -0.527,-3.583 10.359,-5.346 13.2,-6 6.023,-1.387 10.938,-2.638 16.08,-3.12 0.969,-0.091 3.232,-0.675 3.84,0.24 -0.375,2.775 -3.76,4.234 -6.24,6 z m 9.599,0.96 c 1.889,0.907 0.434,4.267 -0.239,5.76 -0.771,1.711 -2.215,3.352 -3.12,4.8 -1.178,1.883 -4.581,7.914 -7.44,8.16 -1.802,0.155 -5.219,-2.173 -5.28,-4.319 -0.076,-2.67 5.068,-6.046 6.96,-7.681 3.656,-3.16 5.796,-5.231 9.119,-6.72 z m 7.681,-9.12 c 3.297,-1.45 8.588,-1.791 12.96,-2.16 1.817,-0.153 3.625,-0.604 5.04,0.48 0.796,2.455 -0.915,5.047 -1.92,7.68 -0.813,2.127 -1.591,5.581 -3.36,6.72 -1.517,0.977 -4.579,1.174 -6.96,1.44 -2.411,0.27 -5.259,0.646 -6.72,-0.96 -1.115,-3.509 2.175,-6.417 2.159,-9.36 -0.008,-1.627 -1.055,-2.027 -1.199,-3.84 z m 19.68,6.72 c 1.096,-2.671 1.603,-5.78 3.12,-8.16 0.564,-0.534 2.138,-0.739 2.64,0 -0.039,0.279 0.053,0.428 0.24,0.48 -0.503,2.361 -1.629,5.083 -2.64,7.44 -0.916,2.135 -1.969,5.252 -4.8,4.8 -0.758,-1.746 0.839,-3.095 1.44,-4.56 z m 36,79.2 c -2.206,0.191 -2.67,-2.359 -3.359,-3.84 -2.353,-5.048 -4.93,-10.068 -7.44,-15.36 -1.658,-3.493 -3.362,-6.987 -5.04,-10.319 -1.751,-3.477 -4.171,-6.493 -5.521,-9.601 -3.354,-7.725 1.988,-10.254 8.4,-12.96 0.355,-0.149 1.051,-0.789 2.16,-0.479 2.481,3.4 2.992,7.963 3.84,12.239 0.444,2.241 1.112,4.451 1.44,6.721 1.302,9.004 3.765,17.553 5.279,26.88 0.35,2.148 1.281,4.59 0.241,6.719 z m 47.04,-74.401 c -0.658,7.159 -5.206,14.142 -8.88,19.44 -2.892,4.171 -5.004,5.769 -9.12,8.88 -4.32,3.266 -7.413,4.407 -13.92,5.76 -5.769,1.2 -11.237,2.474 -17.76,0.961 -1.263,-2.144 -1.671,-5.031 -2.4,-7.681 -0.725,-2.632 -2.009,-5.5 -0.96,-8.16 1.673,-0.838 2.995,-0.153 4.561,-0.479 2.201,-0.459 4.704,-2.238 6.72,-3.36 2.311,-1.286 4.947,-2.033 6.72,-3.12 6.3,-3.861 9.705,-14.108 5.76,-21.6 -0.996,-1.892 -3.569,-4.313 -5.76,-6.24 -2.31,-2.031 -4.62,-4.045 -6.96,-4.8 -1.547,-0.499 -2.904,-0.235 -4.56,-0.48 -2.976,-0.439 -5.778,-1.803 -8.641,-2.399 -3.027,-0.631 -6.265,-1.202 -9.359,-1.44 -9.981,-0.769 -19.688,0.552 -29.04,1.2 -9.58,0.664 -18.672,1.81 -27.36,3.36 -8.512,1.519 -16.853,3.734 -24.96,5.76 -8.149,2.035 -16.063,4.506 -23.52,7.2 -7.464,2.695 -13.805,6.89 -20.64,10.08 -3.414,1.593 -6.46,3.91 -9.84,5.52 -7.026,3.345 -13.22,6.979 -20.4,10.32 -3.501,1.629 -7.152,2.992 -10.56,4.8 -3.31,1.756 -6.629,3.67 -10.32,5.04 -1.859,0.69 -3.891,1.19 -5.76,1.92 -1.916,0.748 -3.701,1.779 -5.52,2.16 -1.393,0.291 -3.497,0.086 -4.8,0.24 -2.355,0.278 -3.682,1.716 -5.76,1.199 -1.125,-2.871 0.095,-4.528 -0.72,-6.479 -0.405,-0.969 -2.056,-2.551 -3.36,-2.88 -1.208,-0.306 -3.834,0.263 -6.48,0.479 -2.591,0.213 -5.285,0.444 -7.2,0.96 -2.035,0.549 -6.385,2.511 -6.96,3.841 -0.749,1.73 0.607,3.895 -0.48,5.76 -1.298,2.228 -8.194,3.583 -11.52,3.84 -2.627,0.202 -7.943,0.212 -9.6,-0.72 -2.488,-1.399 -3.783,-7.852 -3.36,-12 0.322,-3.157 1.955,-5.852 3.6,-6.48 1.346,-0.514 3.273,-0.096 5.28,-0.24 1.718,-0.123 3.504,-0.411 5.04,-0.479 6.827,-0.306 11.89,-0.903 18,-1.92 6.745,-1.123 11.819,-3.028 17.76,-5.04 7.013,-2.375 13.703,-4.837 19.92,-8.4 17.86,-10.235 35.627,-20.318 56.16,-28.56 3.389,-1.36 6.947,-2.242 10.32,-3.84 6.152,-2.916 13.467,-5.606 20.4,-7.681 5.483,-1.641 11.36,-2.688 17.04,-4.32 8.546,-2.456 18.673,-4.861 28.08,-6.96 0.528,-0.117 2.717,-0.49 3.36,0 1.377,2.901 0.748,5.79 1.92,8.16 2.007,4.059 10.103,6.255 15.6,2.641 0.43,-0.282 0.868,-0.631 1.2,-0.96 2.587,-2.563 3.213,-7.225 5.76,-8.641 3.526,-1.96 14.045,-0.539 18.721,-0.24 2.997,0.192 5.922,0.807 8.64,1.2 3.033,0.44 5.937,0.674 8.4,1.44 4.918,1.53 9.825,3.328 14.64,5.28 6.592,2.672 11.88,4.932 16.8,8.88 3.219,2.582 7.811,6.271 9.84,10.08 0.979,1.835 1.557,4.693 2.641,7.199 1.999,4.632 4.191,5.534 3.597,11.999 z m 20.64,3.361 c -4.109,1.303 -10.318,2.248 -15.841,1.68 -0.721,-2.166 -1.691,-7.263 0.721,-8.159 0.709,-0.265 1.811,-0.073 2.88,0 4.364,0.297 12.567,2.472 15.84,4.08 -0.243,1.554 -2.184,1.951 -3.6,2.399 z"
   id="path780" />
		<path
   d="m 259.801,195.8 c 2.729,-1.939 0.327,-7.361 -3.12,-5.52 -3.944,1.72 -0.616,8.174 3.12,5.52 z"
   id="path782" />
		<path
   d="m 90.6,315.081 c 0.797,0.957 2.106,1.808 3.12,2.88 1.035,1.094 1.855,2.441 2.88,3.36 1.801,1.614 4.217,3.001 6.48,4.56 2.321,1.598 4.656,2.768 7.44,3.84 5.095,1.962 11.929,4.256 18,4.32 4.512,0.048 8.27,-0.847 13.2,-1.2 4.285,-0.307 14.16,0.768 14.16,-3.36 0,-1.839 -3.471,-2.917 -4.8,-3.84 -1.922,-1.334 -3.421,-3.028 -4.56,-4.08 -4.518,-4.169 -8.64,-6.922 -9.6,-12.72 -0.39,-2.354 0.276,-6.525 -1.92,-7.2 -1.405,-0.432 -3.58,0.437 -4.56,1.68 -1.056,1.339 -0.789,2.961 -1.2,4.08 -0.81,2.205 -2.482,3.796 -5.76,3.12 -6.107,-1.26 -5.848,-14.8 -0.96,-17.28 1.847,-0.937 5.909,-0.266 6.24,-3.36 0.377,-3.527 -4.231,-4.865 -6,-7.92 -1.1,-1.9 -1.848,-4.921 -2.88,-7.92 -0.984,-2.86 -1.829,-5.936 -1.92,-8.88 -0.265,-8.552 2.057,-18.181 5.28,-22.08 0.666,-0.806 1.855,-1.484 3.12,-2.4 1.039,-0.753 2.345,-2.077 3.36,-2.16 0.986,-0.081 2.275,1.114 3.84,0.96 1.887,-0.186 4.659,-3.543 6,-4.8 3.589,-3.366 6.951,-6.951 8.4,-12 1.279,-4.458 0.925,-11.883 -3.84,-11.28 -3.299,0.417 -3.045,4.217 -4.08,7.44 -0.768,2.391 -1.401,4.862 -3.6,5.04 -1.965,0.16 -3.452,-2.131 -5.28,-2.88 -4.37,-1.789 -10.805,-0.846 -14.16,0.72 -3.63,1.694 -6.768,4.607 -9.6,7.44 -1.404,1.403 -3.005,2.626 -4.32,4.08 -1.297,1.434 -1.9,3.77 -4.32,4.32 -1.784,-1.687 -0.309,-5.489 -3.12,-5.76 -2.528,-0.244 -4.133,4.968 -4.8,7.2 -1.147,3.843 -1.744,7.124 -1.92,10.08 -0.485,8.119 3.025,11.847 5.52,17.04 1.28,2.666 2.435,5.802 3.12,8.88 0.98,4.402 0.953,12.818 -3.36,12.96 -3.008,0.099 -4.333,-4.07 -5.76,-6.48 -0.883,-1.491 -2.913,-7.018 -5.52,-6.72 -1.99,0.227 -2.563,3.606 -2.88,6.24 -1.26,10.447 0.055,14.411 3.6,22.56 1.85,4.252 4.586,8.67 6.96,11.52 z m -5.52,-25.68 c 1.762,-0.226 2.624,1.702 3.6,2.64 1.04,1 2.471,2.358 3.84,2.88 4.31,1.644 8.503,-0.478 10.08,-3.36 1.515,-2.769 2.815,-8.778 1.92,-12.48 -0.945,-3.91 -3.019,-8.645 -5.04,-12.24 -2.122,-3.773 -4.508,-7.943 -5.52,-11.76 -0.628,-2.371 -1.031,-5.342 0.48,-7.68 3.667,0.328 6.823,-0.396 8.4,-3.12 1.235,-2.133 1.888,-4.519 3.36,-6.72 1.936,-2.896 3.222,-4.11 6.24,-6.48 2.748,-2.157 4.372,-3.871 8.16,-4.32 2.672,-0.317 5.352,-0.314 6.72,1.68 -0.688,2.454 -3.195,3.152 -4.8,4.56 -1.071,0.939 -1.867,2.333 -2.88,3.6 -1.008,1.259 -2.235,2.288 -2.88,3.6 -1.102,2.241 -1.671,5.226 -2.4,7.92 -0.739,2.732 -1.579,5.68 -1.68,8.4 -0.331,8.921 1.771,18.113 4.56,24.96 0.347,0.852 0.756,2.142 1.44,3.36 0.749,1.333 1.697,2.388 1.68,3.12 -0.052,2.271 -3.126,3.279 -4.32,5.28 -4.607,7.721 -0.896,22.824 9.84,21.6 2.213,-0.252 3.705,-1.728 5.28,-1.44 2.297,0.42 4.873,5.401 6.24,7.2 1.158,1.524 2.125,2.567 3.12,3.6 0.967,1.004 2.362,1.99 2.64,3.84 -2.6,1.534 -6.034,0.742 -8.88,0.48 -3.397,-0.313 -7.267,-0.362 -10.32,-0.96 -2.72,-0.532 -5.679,-1.964 -8.64,-3.12 -2.921,-1.14 -6.08,-1.971 -8.64,-3.12 -2.419,-1.086 -4.959,-2.965 -7.2,-4.56 -5.227,-3.719 -7.981,-6.957 -11.04,-12.96 -1.384,-2.717 -2.695,-6.25 -3.36,-9.12 -0.375,-1.619 -0.764,-3.561 0,-5.28 z"
   id="path784" />
		<path
   d="m 261.721,221 c 3.194,0.088 2.953,-6.48 -0.72,-5.52 -2.951,0.771 -1.59,5.457 0.72,5.52 z"
   id="path786" />
		<path
   d="m 393.721,234.44 c -1.776,1.521 -5.668,4.6 -5.28,7.44 0.292,2.133 4.422,2.996 5.761,4.32 4.948,4.896 3.088,14.89 -1.44,18.72 -0.979,0.829 -2.184,1.066 -2.88,1.44 -2.69,1.446 -10.406,6.76 -12.24,1.2 -1.331,-4.035 3.095,-8.817 4.8,-10.08 0.918,-0.68 4.55,-1.408 4.801,-2.88 0.518,-3.037 -4.354,-3.037 -7.2,-2.64 -5.825,0.812 -9.439,2.487 -13.44,4.32 -3.834,1.756 -6.229,3.021 -9.12,5.52 -6.354,5.491 -10.94,12.322 -15.359,19.44 -1.922,3.094 -3.804,6.508 -4.561,9.6 -1.258,5.142 -1.311,12.557 0.48,17.04 0.977,2.444 2.756,4.798 4.56,6.96 3.77,4.517 8.932,8.454 16.08,9.12 11.642,1.084 23.741,-2.207 30.24,-6.96 1.538,-1.125 2.461,-2.306 4.56,-4.32 1.535,-1.473 4.09,-2.58 4.561,-4.56 0.333,-1.405 -0.418,-5.091 -2.16,-5.52 -1.317,-0.324 -3.353,1.429 -5.04,2.4 -1.35,0.777 -3.358,2.042 -5.28,2.16 -4.811,0.294 -8.399,-2.145 -8.399,-6.48 0,-3.235 2.828,-6.336 5.04,-7.68 6.339,-3.852 15.916,-1.829 23.76,-1.2 3.589,0.288 7.047,1.337 10.08,1.2 2.069,-0.094 4.546,-0.708 6.479,-1.44 9.016,-3.409 14.689,-13.086 16.561,-23.52 1.584,-8.834 -2.687,-15.062 -6.48,-19.2 -1.312,-1.431 -3.478,-2.536 -3.6,-4.56 -0.095,-1.565 1.217,-3.726 2.4,-5.28 2.409,-3.167 5.842,-6.293 9.359,-7.92 4.052,-1.874 7.675,-1.909 10.32,-3.36 1.844,-1.012 4.789,-4.123 6,-6 1.442,-2.237 1.832,-5.516 -0.96,-5.04 -2.092,0.356 -2.979,2.771 -5.04,3.6 -1.724,0.693 -4.941,1.337 -7.92,0.96 -1.697,-0.215 -3.376,-1.019 -5.04,-1.44 -1.735,-0.44 -3.578,-0.83 -5.521,-0.96 -10.004,-0.67 -17.377,2.62 -23.279,5.76 -5.756,3.061 -10.791,5.721 -15.603,9.84 z m 31.92,-10.799 c 2.919,-0.257 7.442,-0.273 9.36,0.72 0.149,1.586 -1.528,2.023 -2.4,2.64 -3.332,2.358 -6.443,5.02 -9.12,8.88 -1.759,2.537 -4.318,6.128 -3.6,9.36 0.633,2.847 4.793,3.111 6.96,4.56 3.553,2.375 6.571,8.256 6.96,13.68 0.487,6.787 -3.181,15.073 -6.96,18.96 -2.372,2.439 -5.987,4.742 -10.8,5.28 -13.374,1.496 -25.925,-5.665 -36.24,0.48 -4.169,2.483 -10.498,9.19 -7.68,17.28 1.009,2.896 4.383,5.025 7.199,6.48 1.198,0.618 2.551,0.746 2.641,1.68 0.192,1.998 -8.269,4.648 -10.32,5.04 -2.669,0.51 -5.688,0.402 -9.12,0.24 -2.547,-0.121 -5.081,-0.144 -6.96,-0.72 -5.022,-1.542 -10.489,-6.763 -12.24,-11.04 -2.819,-6.888 -0.921,-16.146 1.921,-21.84 1.419,-2.844 2.887,-5.851 4.56,-8.16 0.833,-1.149 2.105,-2.12 3.12,-3.36 0.962,-1.176 1.655,-2.698 2.64,-3.84 3.544,-4.112 6.985,-5.889 11.76,-8.4 1.621,-0.852 3.222,-2.418 5.28,-1.68 0.143,3.134 -1.084,5.624 -0.72,8.16 1.186,8.252 12.592,9.165 19.68,5.52 2.295,-1.18 6.084,-5.263 7.681,-7.92 1.738,-2.894 2.871,-6.673 2.399,-11.28 -0.387,-3.774 -2.188,-7.315 -4.08,-10.32 -0.822,-1.306 -1.453,-2.247 -1.439,-3.36 0.026,-2.3 2.656,-4.064 4.56,-5.52 4.25,-3.252 7.382,-5.301 12.48,-7.68 4.077,-1.904 7.284,-3.383 12.478,-3.84 z"
   id="path788" />
		<path
   d="m 252.601,233.241 c -0.426,-1.849 -2.241,-2.66 -4.56,-2.16 -2.47,0.532 -4.131,2.877 -3.36,5.76 1.232,4.607 8.974,0.98 7.92,-3.6 z"
   id="path790" />
		<path
   d="m 232.44,260.121 c 3.592,-0.53 5.557,-5.989 2.4,-9.12 -2.661,0.2 -4.563,0.18 -5.76,1.44 -2.679,2.819 -0.83,8.298 3.36,7.68 z"
   id="path792" />
		<path
   d="m 244.681,285.081 c 0.183,4.17 0.513,11.516 0.24,16.32 -0.218,3.833 -1.005,7.803 1.68,8.88 1.926,0.772 4.548,-0.297 6.24,-1.2 1.066,-4.34 0.515,-10.501 0.24,-16.56 -0.119,-2.623 -0.124,-5.273 -0.24,-8.64 -0.106,-3.063 -0.287,-6.918 1.2,-7.68 1.465,-0.751 3.442,0.296 5.52,0.24 4.79,-0.129 7.27,-2.886 5.04,-8.16 -2.822,-1.338 -8.824,0.504 -11.28,-1.2 -1.247,-3.553 0.303,-9.903 -0.96,-13.44 -2.761,-1.397 -6.336,-0.686 -7.44,1.68 -1.606,3.441 0.768,9.404 -1.2,12.72 -3.262,1.496 -8.123,-1.411 -10.8,0.72 -2.105,1.676 -1.518,5.998 0.48,7.2 3.236,1.947 8.007,-0.936 10.8,0.72 0.896,1.529 0.352,5.489 0.48,8.4 z"
   id="path794" />
		<path
   d="m 206.521,264.92 c -2.356,0.821 -2.5,5.101 -0.24,5.76 5.116,1.493 5.549,-7.61 0.24,-5.76 z"
   id="path796" />
		<path
   d="m 230.041,281.96 c -6.201,-1.715 -10.08,3.68 -9.12,8.88 0.555,3.007 3.874,4.951 7.2,3.84 4.299,-1.435 6.14,-9.635 1.92,-12.72 z"
   id="path798" />
		<path
   d="m 285.961,287.241 c 2.214,-0.258 1.943,-5.173 -0.96,-4.32 -2.69,0.79 -0.956,4.543 0.96,4.32 z"
   id="path800" />
		<path
   d="m 263.641,289.401 c -0.734,2.919 1.398,5.102 3.6,5.28 2.325,0.188 5.778,-2.119 6,-4.32 0.291,-2.882 -1.782,-4.65 -4.8,-4.32 -2.663,0.291 -4.387,1.716 -4.8,3.36 z"
   id="path802" />
		<path
   d="m 277.081,330.201 c 5.592,-0.803 1.88,-15.758 -3.841,-9.6 -0.344,3.954 -0.664,10.246 3.841,9.6 z"
   id="path804" />
		<path
   d="m 269.4,327.321 c 2.587,-0.211 2.376,-6.22 -0.48,-5.76 -3.179,0.512 -1.979,5.96 0.48,5.76 z"
   id="path806" />
		<path
   d="m 220.681,324.921 c -2.732,0.742 -2.239,8.171 0.72,7.92 2.616,-0.222 3.116,-8.962 -0.72,-7.92 z"
   id="path808" />
		<path
   d="m 212.041,326.841 c -2.872,1.032 -2.724,8.862 0.48,9.12 5.59,0.45 3.886,-10.69 -0.48,-9.12 z"
   id="path810" />
		<path
   d="m 400.681,410.361 c -0.7,-0.138 -1.688,0.588 -2.64,0.479 -1.375,-0.157 -1.763,-1.641 -2.88,-0.96 -0.753,0.459 -0.894,0.712 -0.721,1.92 0.417,2.901 6.97,4.211 8.16,2.16 0.82,-1.409 -0.122,-3.246 -1.919,-3.599 z"
   id="path812" />
		<path
   d="m 291.001,417.321 c -2.883,0.035 -3.995,0.325 -4.32,1.92 -0.896,4.395 8.334,5.141 8.16,0.479 -0.095,-2.514 -1.998,-2.422 -3.84,-2.399 z"
   id="path814" />
		<path
   d="m 127.8,434.601 c 0.613,-3.855 -3.681,-3.975 -7.2,-3.359 -2.37,0.414 -4.73,1.712 -3.84,4.8 0.925,3.202 10.442,2.325 11.04,-1.441 z"
   id="path816" />
		<path
   d="m 221.4,448.521 c -2.235,-0.675 -2.668,0.843 -4.08,2.4 -2.753,-0.18 -4.354,1.113 -3.84,3.36 0.926,4.046 9.166,1.6 9.6,-2.16 0.161,-1.389 -0.564,-3.264 -1.68,-3.6 z"
   id="path818" />
		<path
   d="m 432.121,453.081 c -2.067,0.449 -2.492,2.187 -2.4,3.6 0.251,3.854 6.486,3.957 6.48,0 -0.004,-2.205 -2.392,-3.967 -4.08,-3.6 z"
   id="path820" />
		<path
   d="m 398.281,475.401 c 0.692,2.401 5.766,2.846 7.92,0.96 1.44,-1.262 1.674,-3.197 0.479,-5.28 -3.639,-2.403 -9.713,-0.236 -8.399,4.32 z"
   id="path822" />
		<path
   d="m 119.64,507.321 c -1.836,0.454 -3.396,1.11 -2.88,3.6 0.355,1.714 3.913,3.136 6,2.641 1.452,-0.345 2.857,-2.445 2.64,-4.08 -0.256,-1.936 -2.303,-3.016 -5.76,-2.161 z"
   id="path824" />
		<path
   d="m 291.961,564.201 c -2.579,0.577 -6.225,3.411 -9.12,5.76 -5.611,4.552 -11.147,8.076 -16.32,12.48 -1.167,0.993 -2.768,2.169 -4.08,3.12 -1.272,0.922 -3.494,1.76 -2.64,4.08 3.666,0.822 6.688,-2.4 9.36,-4.32 6.035,-4.337 11.466,-8.181 17.28,-12.48 2.854,-2.111 6.31,-4.143 6.72,-8.159 -0.458,-0.103 -0.434,-0.687 -1.2,-0.481 z"
   id="path826" />
		<path
   d="m 246.601,577.642 c -1.013,0.239 -1.456,1.638 -2.64,1.68 -1.423,0.051 -2.509,-1.915 -4.32,-1.92 -0.956,-0.003 -2.157,1.029 -3.12,0.96 -3.09,-0.222 -4.651,-6.328 -7.92,-3.601 0.705,2.796 3.648,4.106 5.52,6.24 2.798,3.19 5.609,6.558 5.52,12 -0.026,1.609 -1.244,3.732 0.24,5.04 3.405,-0.354 2.518,-5.002 3.84,-7.439 1.329,-0.111 2.497,-0.383 3.12,-1.2 0.437,-2.759 -1.216,-4.7 -0.48,-6.96 1.358,0.322 1.308,2.052 3.36,1.68 1.309,-2.715 -0.642,-5.988 -3.12,-6.48 z"
   id="path828" />
	</g>
</svg>
