<?xml version="1.0" encoding="UTF-8" standalone="no"?>
<!-- Created with Inkscape (http://www.inkscape.org/) -->

<svg
   xmlns:dc="http://purl.org/dc/elements/1.1/"
   xmlns:cc="http://creativecommons.org/ns#"
   xmlns:rdf="http://www.w3.org/1999/02/22-rdf-syntax-ns#"
   xmlns:svg="http://www.w3.org/2000/svg"
   xmlns="http://www.w3.org/2000/svg"
   xmlns:sodipodi="http://sodipodi.sourceforge.net/DTD/sodipodi-0.dtd"
   xmlns:inkscape="http://www.inkscape.org/namespaces/inkscape"
   width="243.2789"
   height="40"
   id="svg4398"
   version="1.1"
   inkscape:version="0.91 r13725"
   sodipodi:docname="parabola.svg"
   inkscape:export-filename="/home/jorge/Kartelo/otros/Software Libre/parabola/PNG/parabolaw.png"
   inkscape:export-xdpi="90"
   inkscape:export-ydpi="90">
  <title
     id="title5056">Logotipo Parabola GNU/Linux-libre</title>
  <defs
     id="defs4400" />
  <sodipodi:namedview
     id="base"
     pagecolor="#ffffff"
     bordercolor="#666666"
     borderopacity="1.0"
     inkscape:pageopacity="0.0"
     inkscape:pageshadow="2"
     inkscape:zoom="1"
     inkscape:cx="309.22381"
     inkscape:cy="93.610461"
     inkscape:document-units="px"
     inkscape:current-layer="layer1"
     showgrid="false"
     showguides="true"
     inkscape:guide-bbox="true"
     fit-margin-top="0"
     fit-margin-left="0"
     fit-margin-right="0"
     fit-margin-bottom="0"
     inkscape:window-width="1364"
     inkscape:window-height="750"
     inkscape:window-x="1400"
     inkscape:window-y="16"
     inkscape:window-maximized="1" />
  <metadata
     id="metadata4403">
    <rdf:RDF>
      <cc:Work
         rdf:about="">
        <dc:format>image/svg+xml</dc:format>
        <dc:type
           rdf:resource="http://purl.org/dc/dcmitype/StillImage" />
        <dc:title>Logotipo Parabola GNU/Linux-libre</dc:title>
        <dc:date>25-02-2015</dc:date>
        <dc:creator>
          <cc:Agent>
            <dc:title>Jorge Araya Navarro &lt;kartelo@gmx.com&gt;</dc:title>
          </cc:Agent>
        </dc:creator>
        <dc:language>Inglés</dc:language>
        <dc:description>Logotipo de la distribución &quot;rolling release&quot; libre Parabola GNU/Linux-libre. Por favor respete el area del seguridad del logotipo.</dc:description>
        <cc:license
           rdf:resource="http://creativecommons.org/licenses/by-sa/3.0/" />
        <dc:rights>
          <cc:Agent>
            <dc:title>Parabola GNU/Linux-libre</dc:title>
          </cc:Agent>
        </dc:rights>
        <dc:source>https://my.owndrive.com/public.php?service=files&amp;t=9cea643b06da60eb0bee0cada476e6bc</dc:source>
      </cc:Work>
      <cc:License
         rdf:about="http://creativecommons.org/licenses/by-sa/3.0/">
        <cc:permits
           rdf:resource="http://creativecommons.org/ns#Reproduction" />
        <cc:permits
           rdf:resource="http://creativecommons.org/ns#Distribution" />
        <cc:requires
           rdf:resource="http://creativecommons.org/ns#Notice" />
        <cc:requires
           rdf:resource="http://creativecommons.org/ns#Attribution" />
        <cc:permits
           rdf:resource="http://creativecommons.org/ns#DerivativeWorks" />
        <cc:requires
           rdf:resource="http://creativecommons.org/ns#ShareAlike" />
      </cc:License>
    </rdf:RDF>
  </metadata>
  <g
     inkscape:label="Capa 1"
     inkscape:groupmode="layer"
     id="layer1"
     transform="translate(-42.818562,-555.83928)">
    <g
       id="g3361"
       transform="matrix(0.41604104,0,0,0.41604104,25.004283,347.94569)">
      <g
         transform="matrix(0.91905565,0,0,0.91905565,-46.518767,64.227535)"
         id="text3940"
         style="font-style:normal;font-variant:normal;font-stretch:normal;font-size:92.42671204px;line-height:125%;font-family:'URW Gothic L';-inkscape-font-specification:'URW Gothic L Book';text-align:start;letter-spacing:0px;word-spacing:0px;writing-mode:lr-tb;text-anchor:start;display:inline;fill:#4d4d4d;fill-opacity:1;stroke:none">
        <path
           id="path4361"
           style="line-height:125%;font-family:'URW Gothic L';-inkscape-font-specification:'URW Gothic L Book';text-align:center;text-anchor:middle;fill:#4d4d4d"
           d="m 228.44791,559.67743 6.83958,0 0,-27.63559 13.12459,0 c 9.24266,0 14.23372,-1.20155 18.39292,-4.25163 4.43647,-3.23493 6.83957,-8.87297 6.83957,-15.71254 0,-7.85626 -2.95766,-14.04886 -8.13355,-17.09894 -4.25162,-2.58794 -9.42753,-3.60464 -18.20806,-3.60464 l -18.85505,0 0,68.30334 m 6.83958,-33.82818 0,-28.28257 9.7048,0 c 7.85626,0 12.75489,0.64699 15.52769,2.03339 3.97434,2.03338 6.19259,6.37745 6.19259,12.4776 0,5.26832 -2.12582,9.51996 -5.63803,11.46091 -2.86523,1.66368 -6.83958,2.31067 -13.12459,2.31067 l -12.66246,0"
           inkscape:connector-curvature="0" />
        <path
           id="path4363"
           style="line-height:125%;font-family:'URW Gothic L';-inkscape-font-specification:'URW Gothic L Book';text-align:center;text-anchor:middle;fill:#4d4d4d"
           d="m 333.42588,509.12002 -6.83958,0 0,8.96539 c -4.99104,-7.02442 -11.18364,-10.16694 -19.96417,-10.16694 -15.15796,0 -26.61889,11.46093 -26.61889,26.61889 0,15.06554 11.55335,26.34162 27.08103,26.34162 8.59567,0 14.14129,-2.86524 19.50203,-10.07452 l 0,8.87297 6.83958,0 0,-50.55741 m -26.61889,5.08347 c 11.09119,0 19.77931,8.68812 19.77931,19.96417 0,11.4609 -8.50327,20.4263 -19.40961,20.4263 -11.4609,0 -20.24145,-8.9654 -20.24145,-20.51873 0,-10.99877 8.87298,-19.87174 19.87175,-19.87174"
           inkscape:connector-curvature="0" />
        <path
           id="path4365"
           style="line-height:125%;font-family:'URW Gothic L';-inkscape-font-specification:'URW Gothic L Book';text-align:center;text-anchor:middle;fill:#4d4d4d"
           d="m 345.12652,559.67743 6.83958,0 0,-29.48412 c 0,-9.42752 4.8062,-14.60342 14.32614,-15.52769 l 0,-6.74715 c -7.30171,0.36971 -11.64577,2.86523 -14.32614,8.41083 l 0,-7.20928 -6.83958,0 0,50.55741"
           inkscape:connector-curvature="0" />
        <path
           id="path4367"
           style="line-height:125%;font-family:'URW Gothic L';-inkscape-font-specification:'URW Gothic L Book';text-align:center;text-anchor:middle;fill:#4d4d4d"
           d="m 424.40843,509.12002 -6.83958,0 0,8.96539 c -4.99103,-7.02442 -11.18364,-10.16694 -19.96417,-10.16694 -15.15796,0 -26.61889,11.46093 -26.61889,26.61889 0,15.06554 11.55336,26.34162 27.08103,26.34162 8.59567,0 14.14129,-2.86524 19.50203,-10.07452 l 0,8.87297 6.83958,0 0,-50.55741 m -26.61889,5.08347 c 11.09119,0 19.77931,8.68812 19.77931,19.96417 0,11.4609 -8.50326,20.4263 -19.40961,20.4263 -11.4609,0 -20.24145,-8.9654 -20.24145,-20.51873 0,-10.99877 8.87298,-19.87174 19.87175,-19.87174"
           inkscape:connector-curvature="0" />
        <path
           id="path4369"
           style="line-height:125%;font-family:'URW Gothic L';-inkscape-font-specification:'URW Gothic L Book';text-align:center;text-anchor:middle;fill:#4d4d4d"
           d="m 436.10906,559.67743 6.83958,0 0,-8.68811 c 4.25163,6.28501 11.46092,9.88966 19.77932,9.88966 15.25039,0 26.71132,-11.3685 26.71132,-26.52647 0,-14.88069 -11.64578,-26.43404 -26.6189,-26.43404 -8.50325,0 -15.52769,3.51222 -19.87174,9.88966 l 0,-26.43404 -6.83958,0 0,68.30334 m 26.52647,-45.47394 c 11.36847,0 19.87174,8.59569 19.87174,19.96417 0,11.64575 -8.59569,20.4263 -19.96417,20.4263 -5.63802,0 -10.25937,-1.94096 -14.23371,-6.00774 -3.97434,-4.06677 -5.82288,-8.68811 -5.82288,-14.41856 0,-11.18362 8.87297,-19.96417 20.14902,-19.96417"
           inkscape:connector-curvature="0" />
        <path
           id="path4371"
           style="line-height:125%;font-family:'URW Gothic L';-inkscape-font-specification:'URW Gothic L Book';text-align:center;text-anchor:middle;fill:#4d4d4d"
           d="m 523.69637,507.91847 c -14.97311,0 -26.52647,11.3685 -26.52647,26.15676 0,15.52767 11.3685,26.80375 27.08103,26.80375 14.78826,0 25.69463,-11.18365 25.69463,-26.34162 0,-15.43524 -11.09122,-26.61889 -26.24919,-26.61889 m 0,6.28502 c 11.09119,0 19.31718,8.68812 19.31718,20.4263 0,11.55333 -7.94871,19.96417 -18.94747,19.96417 -11.64576,0 -19.96417,-8.50327 -19.96417,-20.33388 0,-11.4609 8.41084,-20.05659 19.59446,-20.05659"
           inkscape:connector-curvature="0" />
        <path
           id="path4373"
           style="line-height:125%;font-family:'URW Gothic L';-inkscape-font-specification:'URW Gothic L Book';text-align:center;text-anchor:middle;fill:#4d4d4d"
           d="m 559.58538,559.67743 6.83958,0 0,-68.30334 -6.83958,0 0,68.30334"
           inkscape:connector-curvature="0" />
        <path
           id="path4375"
           style="line-height:125%;font-family:'URW Gothic L';-inkscape-font-specification:'URW Gothic L Book';text-align:center;text-anchor:middle;fill:#4d4d4d"
           d="m 629.48018,509.12002 -6.83958,0 0,8.96539 c -4.99104,-7.02442 -11.18364,-10.16694 -19.96417,-10.16694 -15.15796,0 -26.61889,11.46093 -26.61889,26.61889 0,15.06554 11.55335,26.34162 27.08102,26.34162 8.59568,0 14.1413,-2.86524 19.50204,-10.07452 l 0,8.87297 6.83958,0 0,-50.55741 m -26.6189,5.08347 c 11.0912,0 19.77932,8.68812 19.77932,19.96417 0,11.4609 -8.50327,20.4263 -19.40961,20.4263 -11.4609,0 -20.24145,-8.9654 -20.24145,-20.51873 0,-10.99877 8.87298,-19.87174 19.87174,-19.87174"
           inkscape:connector-curvature="0" />
      </g>
      <path
         inkscape:connector-curvature="0"
         id="path3488"
         d="m 133.91461,499.69492 c -2.9378,0.28071 -6.05693,0.79667 -9.31048,1.48478 l -20.61232,21.15386 c 2.36263,0.28422 4.52483,0.75347 6.4981,1.41492 l 23.4247,-24.05356 z m 14.516,1.18782 -28.52539,29.25905 c 8.02247,10.39653 5.19652,31.28052 -11.68614,65.69749 12.49061,-13.63477 67.00361,-81.39254 42.06314,-94.17046 -0.57905,-0.29668 -1.21226,-0.55187 -1.85161,-0.78608 z m -38.01056,4.12248 c -3.94599,1.25571 -7.96248,2.67925 -11.965628,4.19233 l -13.64258,13.99194 c 3.12941,-0.50736 6.09664,-0.8484 8.89126,-1.03061 l 16.716948,-17.15366 z m -20.455118,7.52874 c -24.8893,10.23787 -47.146371,22.74346 -47.146371,22.74346 13.221811,-4.95498 25.162851,-8.65918 35.582491,-10.88263 l 11.56388,-11.86083 z"
         style="fill:#b3b3b3;stroke:none" />
      <g
         style="fill:#b3b3b3"
         transform="matrix(0.92362056,0,0,0.92362056,-104.0901,37.931279)"
         id="g5438">
        <path
           inkscape:connector-curvature="0"
           id="path4306-9"
           style="font-style:normal;font-variant:normal;font-weight:600;font-stretch:normal;font-size:42.90187836px;line-height:82.99999833%;font-family:'URW Gothic L';-inkscape-font-specification:'URW Gothic L Semi-Bold';letter-spacing:0px;word-spacing:0px;fill:#b3b3b3;fill-opacity:1;stroke:none"
           d="m 709.04141,555.45825 13.12798,0 c -1.71607,3.51795 -5.14823,5.57724 -9.30971,5.57724 -6.22076,0 -10.98288,-4.67631 -10.98288,-10.72547 0,-2.74572 1.15835,-5.74885 2.96023,-7.63653 1.84478,-2.01639 4.63341,-3.13184 7.67944,-3.13184 3.68955,0 6.73559,1.45867 8.70908,4.20438 l 6.9072,0 c -2.05929,-5.70594 -8.58038,-9.86743 -15.48758,-9.86743 -9.26679,0 -16.68883,7.25043 -16.68883,16.34562 0,9.26679 7.50784,16.47432 17.24656,16.47432 4.7621,0 8.88069,-1.67318 12.01252,-4.89081 2.91733,-3.04604 4.5476,-6.99301 4.5476,-11.06869 l 0,-0.77223 -20.72161,0 0,5.49144" />
        <path
           inkscape:connector-curvature="0"
           id="path4308-2"
           style="font-style:normal;font-variant:normal;font-weight:600;font-stretch:normal;font-size:42.90187836px;line-height:82.99999833%;font-family:'URW Gothic L';-inkscape-font-specification:'URW Gothic L Semi-Bold';letter-spacing:0px;word-spacing:0px;fill:#b3b3b3;fill-opacity:1;stroke:none"
           d="m 733.61749,566.14081 5.87756,0 0,-23.0383 13.25668,23.0383 6.56398,0 0,-31.70448 -5.87755,0 0,23.08121 -13.12798,-23.08121 -6.69269,0 0,31.70448" />
        <path
           inkscape:connector-curvature="0"
           id="path4310-5"
           style="font-style:normal;font-variant:normal;font-weight:600;font-stretch:normal;font-size:42.90187836px;line-height:82.99999833%;font-family:'URW Gothic L';-inkscape-font-specification:'URW Gothic L Semi-Bold';letter-spacing:0px;word-spacing:0px;fill:#b3b3b3;fill-opacity:1;stroke:none"
           d="m 765.37494,534.43633 0,20.07808 c 0,3.38924 0.51482,5.53434 1.71607,7.46492 1.84478,2.91733 5.27694,4.71921 8.96649,4.71921 3.43215,0 6.6927,-1.54447 8.58038,-4.07568 1.54447,-2.05929 2.14509,-4.4189 2.14509,-8.10845 l 0,-20.07808 -5.87755,0 0,20.07808 c 0,2.3596 -0.17161,3.34634 -0.77224,4.37599 -0.81513,1.32995 -2.3596,2.14509 -4.03277,2.14509 -1.71608,0 -3.26055,-0.81514 -4.07568,-2.14509 -0.60063,-1.02965 -0.77224,-2.01639 -0.77224,-4.37599 l 0,-20.07808 -5.87755,0" />
        <path
           inkscape:connector-curvature="0"
           d="m 695.95635,586.32041 7.18518,0 0,-2.593 -4.47342,0 0,-12.03468 -2.71176,0 0,14.62768"
           style="font-style:normal;font-variant:normal;font-weight:600;font-stretch:normal;font-size:19.79388237px;line-height:125%;font-family:'URW Gothic L';-inkscape-font-specification:'URW Gothic L Semi-Bold';letter-spacing:0px;word-spacing:0px;fill:#b3b3b3;fill-opacity:1;stroke:none"
           id="path5235" />
        <path
           inkscape:connector-curvature="0"
           style="font-style:normal;font-variant:normal;font-weight:600;font-stretch:normal;font-size:19.79388237px;line-height:125%;font-family:'URW Gothic L';-inkscape-font-specification:'URW Gothic L Semi-Bold';letter-spacing:0px;word-spacing:0px;fill:#b3b3b3;fill-opacity:1;stroke:none"
           d="m 704.37772,586.32041 2.63258,0 0,-10.96581 -2.63258,0 0,10.96581"
           id="path5259" />
        <path
           style="font-style:normal;font-variant:normal;font-weight:600;font-stretch:normal;font-size:19.79388237px;line-height:125%;font-family:'URW Gothic L';-inkscape-font-specification:'URW Gothic L Semi-Bold';letter-spacing:0px;word-spacing:0px;fill:#b3b3b3;fill-opacity:1;stroke:none"
           d="m 705.74999,571.12432 -1.86151,1.86151 1.74955,1.74955 1.86151,-1.86151 -1.74955,-1.74955"
           id="path5237"
           inkscape:connector-curvature="0" />
        <path
           inkscape:connector-curvature="0"
           d="m 709.13289,586.32041 2.63258,0 0,-5.1662 c 0,-1.46475 0.099,-2.09815 0.43547,-2.63259 0.41567,-0.65319 1.10846,-1.00949 1.9398,-1.00949 0.67299,0 1.22722,0.23753 1.58351,0.69279 0.35629,0.47505 0.51464,1.2866 0.51464,2.75135 l 0,5.36414 2.63259,0 0,-5.87878 c 0,-1.95959 -0.19794,-2.9097 -0.79176,-3.76084 -0.71258,-1.02928 -1.90021,-1.58351 -3.42434,-1.58351 -1.24701,0 -2.11795,0.37609 -3.08785,1.3064 l 0,-1.04908 -2.43464,0 0,10.96581"
           style="font-style:normal;font-variant:normal;font-weight:600;font-stretch:normal;font-size:19.79388237px;line-height:125%;font-family:'URW Gothic L';-inkscape-font-specification:'URW Gothic L Semi-Bold';letter-spacing:0px;word-spacing:0px;fill:#b3b3b3;fill-opacity:1;stroke:none"
           id="path5239" />
        <path
           inkscape:connector-curvature="0"
           d="m 730.75987,575.3546 -2.63259,0 0,5.1662 c 0,1.44496 -0.099,2.15754 -0.41567,2.63259 -0.37608,0.6334 -1.10846,1.00949 -1.99918,1.00949 -0.67299,0 -1.18764,-0.21773 -1.54393,-0.69279 -0.37608,-0.47505 -0.53443,-1.2866 -0.53443,-2.75135 l 0,-5.36414 -2.63259,0 0,5.87878 c 0,1.86063 0.21774,2.81074 0.83135,3.72125 0.73237,1.04908 1.92,1.6231 3.34516,1.6231 1.32619,0 2.15754,-0.33649 3.14723,-1.30639 l 0,1.04907 2.43465,0 0,-10.96581"
           style="font-style:normal;font-variant:normal;font-weight:600;font-stretch:normal;font-size:19.79388237px;line-height:125%;font-family:'URW Gothic L';-inkscape-font-specification:'URW Gothic L Semi-Bold';letter-spacing:0px;word-spacing:0px;fill:#b3b3b3;fill-opacity:1;stroke:none"
           id="path5241" />
        <path
           inkscape:connector-curvature="0"
           d="m 731.82101,586.32041 3.16702,0 2.29609,-3.76084 2.29609,3.76084 3.16702,0 -3.8994,-5.66105 3.34517,-5.30476 -2.96908,0 -1.9398,3.30558 -1.97939,-3.30558 -2.96908,0 3.36496,5.30476 -3.8796,5.66105"
           style="font-style:normal;font-variant:normal;font-weight:600;font-stretch:normal;font-size:19.79388237px;line-height:125%;font-family:'URW Gothic L';-inkscape-font-specification:'URW Gothic L Semi-Bold';letter-spacing:0px;word-spacing:0px;fill:#b3b3b3;fill-opacity:1;stroke:none"
           id="path5243" />
        <path
           inkscape:connector-curvature="0"
           d="m 744.36136,581.78761 5.4829,0 0,-2.33567 -5.4829,0 0,2.33567"
           style="font-style:normal;font-variant:normal;font-weight:600;font-stretch:normal;font-size:19.79388237px;line-height:125%;font-family:'URW Gothic L';-inkscape-font-specification:'URW Gothic L Semi-Bold';letter-spacing:0px;word-spacing:0px;fill:#b3b3b3;fill-opacity:1;stroke:none"
           id="path5245" />
        <path
           inkscape:connector-curvature="0"
           d="m 752.27736,586.32041 2.63259,0 0,-14.62768 -2.63259,0 0,14.62768"
           style="font-style:normal;font-variant:normal;font-weight:600;font-stretch:normal;font-size:19.79388237px;line-height:125%;font-family:'URW Gothic L';-inkscape-font-specification:'URW Gothic L Semi-Bold';letter-spacing:0px;word-spacing:0px;fill:#b3b3b3;fill-opacity:1;stroke:none"
           id="path5247" />
        <path
           inkscape:connector-curvature="0"
           style="font-style:normal;font-variant:normal;font-weight:600;font-stretch:normal;font-size:19.79388237px;line-height:125%;font-family:'URW Gothic L';-inkscape-font-specification:'URW Gothic L Semi-Bold';letter-spacing:0px;word-spacing:0px;fill:#b3b3b3;fill-opacity:1;stroke:none"
           d="m 757.03253,586.32041 2.63259,0 0,-10.96581 -2.63259,0 0,10.96581"
           id="path5263" />
        <path
           style="font-style:normal;font-variant:normal;font-weight:600;font-stretch:normal;font-size:19.79388237px;line-height:125%;font-family:'URW Gothic L';-inkscape-font-specification:'URW Gothic L Semi-Bold';letter-spacing:0px;word-spacing:0px;fill:#b3b3b3;fill-opacity:1;stroke:none"
           d="m 758.40481,571.12431 -1.86152,1.86153 1.74955,1.74955 1.86152,-1.86153 -1.74955,-1.74955"
           id="path5249"
           inkscape:connector-curvature="0" />
        <path
           inkscape:connector-curvature="0"
           d="m 761.78771,586.32041 2.41485,0 0,-1.40536 c 1.12825,1.20742 2.17733,1.66268 3.80043,1.66268 1.70227,0 3.04826,-0.6334 4.05774,-1.92 0.83134,-1.06887 1.2866,-2.43465 1.2866,-3.8994 0,-3.30557 -2.37526,-5.79961 -5.52249,-5.79961 -1.42516,0 -2.39506,0.39588 -3.40455,1.40537 l 0,-4.67136 -2.63258,0 0,14.62768 m 5.66105,-8.94683 c 1.88041,0 3.24619,1.44495 3.24619,3.40455 0,1.99918 -1.30639,3.38475 -3.18681,3.38475 -1.90021,0 -3.2462,-1.40537 -3.2462,-3.40455 0,-1.97938 1.34599,-3.38475 3.18682,-3.38475"
           style="font-style:normal;font-variant:normal;font-weight:600;font-stretch:normal;font-size:19.79388237px;line-height:125%;font-family:'URW Gothic L';-inkscape-font-specification:'URW Gothic L Semi-Bold';letter-spacing:0px;word-spacing:0px;fill:#b3b3b3;fill-opacity:1;stroke:none"
           id="path5251" />
        <path
           inkscape:connector-curvature="0"
           d="m 774.85476,586.32041 2.63259,0 0,-6.09651 c 0,-1.70228 0.77196,-2.55341 2.35547,-2.593 l 0,-2.53362 -0.19794,0 c -1.12825,0 -1.68248,0.3167 -2.37526,1.32619 l 0,-1.06887 -2.41486,0 0,10.96581"
           style="font-style:normal;font-variant:normal;font-weight:600;font-stretch:normal;font-size:19.79388237px;line-height:125%;font-family:'URW Gothic L';-inkscape-font-specification:'URW Gothic L Semi-Bold';letter-spacing:0px;word-spacing:0px;fill:#b3b3b3;fill-opacity:1;stroke:none"
           id="path5253" />
        <path
           inkscape:connector-curvature="0"
           d="m 792.06183,582.00535 c 0.0792,-0.37609 0.099,-0.61361 0.099,-1.00949 0,-3.40455 -2.39506,-5.89858 -5.66105,-5.89858 -3.2264,0 -5.77982,2.55341 -5.77982,5.77981 0,3.20661 2.59301,5.70064 5.93817,5.70064 1.80124,0 3.20661,-0.6532 4.35465,-1.97939 0.41567,-0.51464 0.69279,-0.9699 0.87093,-1.52412 l -2.87011,0 c -0.67299,0.79175 -1.32619,1.08866 -2.41485,1.08866 -1.56372,0 -2.71177,-0.83135 -3.02847,-2.15753 l 8.49158,0 m -8.57075,-2.31589 c 0.41567,-1.40536 1.48454,-2.17733 3.04826,-2.17733 1.62309,0 2.69196,0.77197 3.02846,2.17733 l -6.07672,0"
           style="font-style:normal;font-variant:normal;font-weight:600;font-stretch:normal;font-size:19.79388237px;line-height:125%;font-family:'URW Gothic L';-inkscape-font-specification:'URW Gothic L Semi-Bold';letter-spacing:0px;word-spacing:0px;fill:#b3b3b3;fill-opacity:1;stroke:none"
           id="path5255" />
      </g>
    </g>
  </g>
</svg>
