<?xml version="1.0" encoding="UTF-8" standalone="no"?>
<svg
   xmlns:dc="http://purl.org/dc/elements/1.1/"
   xmlns:cc="http://creativecommons.org/ns#"
   xmlns:rdf="http://www.w3.org/1999/02/22-rdf-syntax-ns#"
   xmlns:svg="http://www.w3.org/2000/svg"
   xmlns="http://www.w3.org/2000/svg"
   xmlns:sodipodi="http://sodipodi.sourceforge.net/DTD/sodipodi-0.dtd"
   xmlns:inkscape="http://www.inkscape.org/namespaces/inkscape"
   width="250"
   height="249.72481"
   version="1.0"
   id="svg66"
   sodipodi:docname="JHS.svg"
   inkscape:version="0.92.4 5da689c313, 2019-01-14"
   inkscape:export-filename="/home/jorge/.emacs.d/dashboard/JHS.png"
   inkscape:export-xdpi="96"
   inkscape:export-ydpi="96">
  <defs
     id="defs70" />
  <sodipodi:namedview
     pagecolor="#ff73ff"
     bordercolor="#666666"
     borderopacity="1"
     objecttolerance="10"
     gridtolerance="10"
     guidetolerance="10"
     inkscape:pageopacity="0"
     inkscape:pageshadow="2"
     inkscape:window-width="1366"
     inkscape:window-height="704"
     id="namedview68"
     showgrid="false"
     fit-margin-top="0"
     fit-margin-left="0"
     fit-margin-right="0"
     fit-margin-bottom="0"
     inkscape:zoom="1"
     inkscape:cx="164"
     inkscape:cy="174.80736"
     inkscape:window-x="1366"
     inkscape:window-y="27"
     inkscape:window-maximized="1"
     inkscape:current-layer="svg66" />
  <metadata
     id="metadata60">
    <rdf:RDF>
      <cc:Work
         rdf:about="">
        <dc:format>image/svg+xml</dc:format>
        <dc:type
           rdf:resource="http://purl.org/dc/dcmitype/StillImage" />
        <dc:title></dc:title>
      </cc:Work>
    </rdf:RDF>
  </metadata>
  <path
     style="opacity:1;fill:#ffffff;fill-opacity:1;fill-rule:nonzero;stroke:#ffffff;stroke-width:0.02698999;stroke-linecap:butt;stroke-linejoin:miter;stroke-miterlimit:4;stroke-dasharray:none;stroke-opacity:1"
     d="m 124.55909,0.00154628 c -2.1078,20.32959672 -3.08099,41.54899672 -5.6755,61.42483672 -1.52142,-23.37728 -11.65595,-20.85316 -9.6566,-27.99176 5.54361,-18.31281 -11.072112,-10.75878 -7.67293,-30.6504297 -8.734546,20.6764097 6.43415,16.6969897 1.44641,25.9943197 -10.957028,17.23058 8.98045,16.44168 3.71939,35.00348 L 77.612278,8.9831533 95.120907,68.217693 C 84.209949,47.282653 75.927399,53.751243 74.857185,46.397343 c -2.359864,-18.9874 -14.476826,-5.34522 -19.437189,-24.90605 0.401752,22.44201 12.649103,12.6629 11.860678,23.18411 -3.032106,20.22579 14.930232,11.36175 17.605054,30.58154 -0.28225,0.22758 -0.562043,0.45653 -0.840307,0.68878 l -47.993738,-39.06723 39.990188,47.02945 c -0.06493,0.0772 -0.1283,0.15667 -0.192858,0.23419 -17.885948,-15.21574 -23.121317,-6.17032 -26.862162,-12.57701 -9.300939,-16.72075 -15.417397,0.46401 -27.344311,-15.81423 8.779586,20.6573 16.461005,7.0036 19.671374,17.05402 4.7394,19.77977 17.953411,5.10807 27.619817,21.48974 -0.210469,0.38354 -0.417132,0.76886 -0.619894,1.15714 L 9.4374717,77.281943 64.002112,105.83849 c -0.02125,0.0678 -0.03413,0.13873 -0.05512,0.20664 -22.153826,-7.247247 -23.612615,3.06597 -29.479494,-1.44643 -14.919699,-11.978867 -14.112959,6.23951 -31.2978691,-4.33927 15.9213131,15.82141 17.8946661,0.2777 24.6580911,8.37548 11.836966,16.5162 18.540287,-2.00715 33.6397,9.44997 -0.04772,0.44875 -0.08565,0.89853 -0.123978,1.35 l -61.34216042,5.37244 61.36972142,5.85457 c 0.01077,0.11969 0.02989,0.23865 0.04133,0.35817 -23.415616,1.38051 -20.944588,11.54631 -28.07441,9.50507 -18.280651,-5.64882 -10.819983,10.9936 -30.691749,7.48008 20.625825,8.85328 16.725822,-6.32223 25.994312,-1.28112 17.201452,11.07797 16.509848,-8.96461 35.155005,-3.48519 0.102218,0.34016 0.209118,0.68163 0.316837,1.01938 L 8.7073767,172.00206 67.005175,155.14091 c -19.185281,10.37828 -13.26435,18.30508 -20.442803,19.29943 -19.00319,2.22934 -5.435536,14.44602 -25.030032,19.27184 22.444282,-0.24755 12.737441,-12.55602 23.252996,-11.69533 20.051707,3.14703 11.602822,-14.58887 30.278485,-17.34332 0.289642,0.36183 0.584342,0.71917 0.881635,1.07449 l -39.16367,47.44268 47.08457,-39.50803 c 0.08441,0.071 0.163158,0.14987 0.247958,0.22041 -15.23869,17.85449 -6.206,23.10521 -12.618343,26.8346 -16.736748,9.27219 0.443178,15.43175 -15.855564,27.33054 20.672406,-8.74401 7.025648,-16.45074 17.081585,-19.64379 19.792707,-4.7065 5.14155,-17.96665 21.558615,-27.60602 l -17.136694,59.48243 c 4.848358,-5.52893 24.978427,-55.63222 29.231557,-54.39931 -7.141506,22.12475 3.13976,23.534 -1.35,29.41065 -11.930613,14.95826 6.29412,14.09268 -4.22906,31.31162 15.7699,-15.97236 0.21696,-17.88237 8.29283,-24.67189 16.46435,-11.88055 -2.03784,-18.54298 9.31222,-33.65347 l 6.94284,61.42482 c 2.32131,-20.24267 3.05644,-41.86668 6.07498,-61.42482 1.68029,23.03837 11.702,20.53278 9.73926,27.64736 -5.4721,18.33434 11.10459,10.71816 7.78314,30.6229 8.65373,-20.71033 -6.49427,-16.67757 -1.54286,-25.99434 10.83372,-17.18439 -8.83255,-16.42562 -3.92601,-34.71418 l 29.39686,54.39935 -16.69587,-55.6942 c 9.73281,17.22118 17.27671,11.94784 18.16985,18.91369 2.03665,19.02483 14.383,5.59438 19.01015,25.23667 -0.0202,-22.44561 -12.42839,-12.88446 -11.46119,-23.39076 3.37009,-20.13901 -14.67335,-11.6455 -17.06781,-30.78818 l 48.15905,39.10856 c -12.84534,-16.03989 -26.8344,-31.91442 -39.1499,-47.97994 17.76701,15.45835 23.10161,6.44297 26.77952,12.89381 9.12783,16.81589 15.43458,-0.31072 27.19278,16.08974 -8.56582,-20.74681 -16.3996,-7.16384 -19.50606,-17.24688 -4.55122,-19.89872 -17.99283,-5.19447 -27.49584,-21.95807 l 59.4136,17.81168 c -17.97584,-9.94436 -36.99843,-19.29524 -54.46821,-29.46573 22.54616,7.40333 23.93371,-3.04124 29.85145,1.47397 14.96594,11.92109 14.08591,-6.31073 31.31164,4.20152 -15.98241,-15.75972 -17.891,-0.20751 -24.68564,-8.27905 -11.97921,-16.57878 -18.62714,2.32737 -33.98409,-9.54641 l 61.75544,-6.72242 -61.64524,-5.63417 c -10e-4,-0.0137 0.001,-0.0277 0,-0.0413 23.51915,-1.47625 20.9789,-11.65064 28.12951,-9.64284 18.30919,5.5557 10.76099,-11.057617 30.65044,-7.64537 -5.16769,-2.187027 -8.79474,-2.881877 -11.47497,-2.768877 -8.04073,0.339 -7.54883,7.933127 -14.51936,4.187747 -17.24719,-10.983557 -16.4486,9.01493 -35.08612,3.66428 l 54.89525,-29.038697 c -19.7979,5.34778 -40.26699,12.75128 -59.70289,17.16423 21.31154,-10.8003 14.8296,-19.1941 22.21984,-20.20861 19.00587,-2.2061 5.471,-14.42864 25.07135,-19.23056 -22.44454,0.22015 -12.76605,12.54136 -23.28054,11.66782 -20.25406,-3.2041 -11.44391,14.92715 -30.88461,17.37087 l 38.92948,-48.53098 -47.53915,39.78356 c -0.0148,-0.0124 -0.0264,-0.0289 -0.0413,-0.0413 15.55897,-18.27254 6.2986,-23.5006 12.72853,-27.30299 16.66889,-9.39348 -0.54914,-15.42377 15.66271,-27.44073 -20.60832,8.89395 -6.91136,16.50176 -16.94383,19.7678 -19.90676,4.88669 -4.76467,18.19821 -21.71014,27.97798 L 172.51151,9.1484833 c -4.3369,5.3988297 -25.4324,55.9234897 -28.79073,54.8401597 7.1981,-22.38926 -3.18555,-23.7548 1.29489,-29.67236 11.86552,-15.01001 -6.35697,-14.06086 4.09132,-31.3254297 -15.70038,16.0407297 -0.13634,17.8886397 -8.18263,24.7131997 -16.45989,11.98643 2.21895,18.55203 -9.27089,33.80501 z m 0.30306,63.64268672 c 33.8104,-1e-5 61.24575,27.43535 61.24575,61.245747 0,33.8104 -27.43535,61.24571 -61.24575,61.24571 -33.810401,5e-5 -61.259526,-27.43532 -61.259526,-61.24571 0,-33.810397 27.449125,-61.245747 61.259526,-61.245747 z m -9.51885,10.34537 7.31477,6.4607 v 7.24589 h -12.12241 l -6.36427,-7.08058 -0.0551,18.85862 6.4607,-7.39744 h 12.02599 l 0.0551,35.678477 h -7.08059 v -15.3872 c 0,-1.5983 2.38714,-2.68621 3.96733,-2.68622 h 1.70816 v -1.80459 h -18.00455 v 1.83214 h 2.10765 c 1.5764,1e-5 3.60918,1.31926 3.60918,3.12703 v 32.99225 c 0,1.48295 -1.32867,3.0719 -3.49897,3.07194 h -2.24541 v 1.88724 h 18.05964 v -1.88724 h -2.08009 c -1.95077,-1e-5 -3.60917,-1.39216 -3.60917,-2.87908 l -0.0137,-15.66271 7.0806,0.0137 v 0.44082 l 1.99743,13.1418 2.38317,-13.0867 v -0.48214 l 7.94844,0.0276 v 15.69026 c 1e-5,1.32685 -1.59723,2.79642 -3.54029,2.79642 h -2.6449 v 1.79081 h 18.05965 v -1.73572 H 144.754 c -2.4061,-1e-5 -4.06378,-1.39394 -4.06378,-3.22345 l 0.0276,-32.53767 c 0,-1.24662 1.66008,-3.40383 4.66988,-3.49897 h 1.55663 v -1.76326 l -18.1423,0.0276 v 1.7357 h 1.54286 c 2.3986,-0.0191 4.60966,2.08079 4.66988,3.55407 v 14.50558 h -7.976 V 92.063033 h 12.3566 l 6.17141,7.989767 V 80.367663 l -5.82702,7.39743 H 127.0663 v -7.16325 l 7.48008,-6.61222 z m 57.99473,33.006027 c -0.26571,1.85584 -0.77557,2.9728 -1.48775,3.49897 -21.73358,-11.597117 -31.51862,12.25383 -11.18568,21.26933 29.10901,11.7935 -7.98501,29.15275 -9.50508,4.82141 h -1.68061 v 14.98772 h 1.90102 c -0.14722,-1.48428 1.04897,-2.95174 1.10204,-3.0306 24.05547,9.87615 34.62585,-11.59613 13.47241,-22.17852 -28.03442,-12.35936 5.77155,-28.343777 7.38365,-3.96733 h 1.76327 v -15.40098 z m -95.767074,0.88163 v 1.83214 h 2.10765 c 1.576393,1e-5 3.609165,1.31926 3.609165,3.12703 v 32.99225 c 0,1.48295 -1.328657,3.0719 -3.498965,3.07194 h -2.2454 v 1.88724 h 18.059643 v -1.88724 h -2.080092 c -1.950786,-1e-5 -3.609186,-1.39216 -3.609186,-2.87908 l -0.01371,-33.65347 c 0,-1.5983 2.387142,-2.68621 3.967335,-2.68622 h 1.708157 v -1.80459 z m 46.822824,49.71567 c -0.24912,-5.5e-4 -0.50423,0.006 -0.75765,0.0137 -1.21637,0.0365 -2.47595,0.1711 -3.81581,0.45459 -0.55171,1.42687 -0.2554,2.22292 0,3.04437 1.27754,0.40063 2.37357,1.03116 3.03061,2.25918 l 1.87346,13.25201 1.94235,-13.48619 c 0.54675,-0.88287 0.79588,-1.85472 2.72754,-2.34182 0.48746,-1.88406 0.0745,-1.96741 0,-2.72755 -1.61679,-0.26094 -3.25667,-0.46353 -5.0005,-0.46837 z m -18.88617,7.5903 c -1.87667,2.33367 -3.62897,4.8548 -4.73876,8.33413 0.96733,1.18513 1.79079,1.31725 2.63112,1.50155 0.97993,-0.91227 2.07915,-1.56528 3.47141,-1.5291 l 12.43925,4.93162 -10.75864,-8.36169 c -0.49693,-0.91175 -1.20684,-1.60672 -0.675,-3.52651 -1.39649,-1.35544 -1.67183,-1.03884 -2.36938,-1.35 z m 38.5851,0.19285 c -1.51473,0.21423 -2.06608,0.85035 -2.65866,1.47398 0.27335,1.31067 0.2694,2.58818 -0.48215,3.7607 l -10.66221,8.09998 12.72853,-4.87651 c 1.03733,0.0467 1.9938,-0.20895 3.36122,1.23978 1.8825,-0.49335 1.75587,-0.90045 2.38316,-1.33623 -1.02543,-2.81362 -2.26728,-5.61132 -4.66989,-8.3617 z"
     id="path64"
     inkscape:connector-curvature="0" />
</svg>
