<?xml version="1.0" encoding="UTF-8" standalone="no"?>
<!-- Created with Inkscape (http://www.inkscape.org/) -->

<svg
   xmlns:dc="http://purl.org/dc/elements/1.1/"
   xmlns:cc="http://creativecommons.org/ns#"
   xmlns:rdf="http://www.w3.org/1999/02/22-rdf-syntax-ns#"
   xmlns:svg="http://www.w3.org/2000/svg"
   xmlns="http://www.w3.org/2000/svg"
   xmlns:sodipodi="http://sodipodi.sourceforge.net/DTD/sodipodi-0.dtd"
   xmlns:inkscape="http://www.inkscape.org/namespaces/inkscape"
   id="svg6612"
   sodipodi:version="0.32"
   inkscape:version="0.91 r13725"
   width="124.61806"
   height="100"
   version="1.0"
   sodipodi:docname="emacs.svg"
   inkscape:output_extension="org.inkscape.output.svg.inkscape"
   inkscape:export-filename="/home/jorge/org-page-themes/shackra/static/img/emacs.png"
   inkscape:export-xdpi="43.330002"
   inkscape:export-ydpi="43.330002">
  <metadata
     id="metadata6617">
    <rdf:RDF>
      <cc:Work
         rdf:about="">
        <dc:format>image/svg+xml</dc:format>
        <dc:type
           rdf:resource="http://purl.org/dc/dcmitype/StillImage" />
        <cc:license
           rdf:resource="http://creativecommons.org/licenses/GPL/2.0/" />
        <dc:creator>
          <cc:Agent>
            <dc:title>Dmitry Dzhus</dc:title>
          </cc:Agent>
        </dc:creator>
        <dc:date>2007-07</dc:date>
        <dc:title>Emacs logo</dc:title>
        <dc:subject>
          <rdf:Bag>
            <rdf:li>emacs</rdf:li>
            <rdf:li>logo</rdf:li>
          </rdf:Bag>
        </dc:subject>
        <dc:description>Emacs logo by Luis Fernandes was created in 2001. This is an SVG version created by hand from scratch in Inkscape.</dc:description>
        <dc:language>en</dc:language>
      </cc:Work>
      <cc:License
         rdf:about="http://creativecommons.org/licenses/GPL/2.0/">
        <cc:permits
           rdf:resource="http://web.resource.org/cc/Reproduction" />
        <cc:permits
           rdf:resource="http://web.resource.org/cc/Distribution" />
        <cc:requires
           rdf:resource="http://web.resource.org/cc/Notice" />
        <cc:permits
           rdf:resource="http://web.resource.org/cc/DerivativeWorks" />
        <cc:requires
           rdf:resource="http://web.resource.org/cc/ShareAlike" />
        <cc:requires
           rdf:resource="http://web.resource.org/cc/SourceCode" />
      </cc:License>
    </rdf:RDF>
  </metadata>
  <defs
     id="defs6615" />
  <sodipodi:namedview
     inkscape:window-height="750"
     inkscape:window-width="1364"
     inkscape:pageshadow="2"
     inkscape:pageopacity="0.0"
     guidetolerance="10.0"
     gridtolerance="10.0"
     objecttolerance="10.0"
     borderopacity="1.0"
     bordercolor="#666666"
     pagecolor="#ffffff"
     id="base"
     inkscape:zoom="1.5488348"
     inkscape:cx="47.370175"
     inkscape:cy="111.05688"
     inkscape:window-x="1400"
     inkscape:window-y="16"
     inkscape:current-layer="svg6612"
     showgrid="false"
     inkscape:window-maximized="0"
     fit-margin-top="0"
     fit-margin-left="0"
     fit-margin-right="0"
     fit-margin-bottom="0" />
  <g
     id="g3352"
     transform="matrix(0.46704973,0,0,0.46704973,-1.3951467,-0.52059697)">
    <path
       id="path9706"
       d="m 70.058594,1.1152344 c -6.33347,0.068767 -16.885303,15.0596266 -23.195313,20.5019536 -6.55517,5.653783 -10.48529,6.650437 -12.86914,6.677734 -3.69397,0.04412 -8.143985,-1.843355 -11.521485,-12.535156 l -6.662109,16.726562 c 0,0 4.079517,9.731472 10.679687,10.351563 15.12668,1.421164 31.961485,-27.217585 36.703125,-27.078125 4.74165,0.13946 14.360487,7.661751 19.472657,18.162109 6.72965,-13.163585 14.919983,-19.009696 28.501954,-9.253906 7.90203,5.675951 24.42234,28.126299 34.30859,29.232422 10.70462,1.197688 19.90059,-8.986751 24.33399,-27.611329 -6.13625,7.94923 -8.63305,11.518453 -14.78125,11.923829 -6.34543,0.41838 -5.78873,1.673034 -27.96289,-21.337891 C 104.89225,-6.1359259 94.433536,4.8803674 87.878906,14.642578 86.414576,13.038786 78.997004,1.0181833 70.058594,1.1152344 Z m 160.697266,0.070313 c -11.62622,0 -20.74198,23.0715206 -18.73633,31.6054686 7.70052,-9.764246 7.21623,-15.798786 15.76758,-15.689453 16.76274,0.04683 10.73176,31.700825 5.77344,49.449218 -9.45384,33.840119 -17.32159,62.839469 -21.70117,87.691409 -4.37959,24.85194 4.29249,9.80106 5.01953,4.18359 0.59559,-4.60183 9.34384,-58.08394 23.15039,-93.855468 5.65734,-17.096493 19.75457,-63.3847646 -9.27344,-63.3847646 z M 206.55469,24.980469 c 0,0 -10.38318,18.198939 -19.78125,18.546875 -11.01641,0.407851 -8.5977,-6.591622 -10.19336,-5.554688 -1.59278,1.03506 -7.70656,13.980851 -7.80274,15.560547 11.86356,19.580712 33.80309,-13.454714 37.77735,-28.552734 z M 76.605469,33.617188 c -16.69807,20.317453 -17.367261,20.801298 -26.144531,35.24414 -8.777271,14.442842 -11.107612,24.04376 -6.988282,27.625 4.15059,3.608422 11.545889,3.807562 20.605469,-2.888672 12.60731,-9.661502 29.436981,-23.449207 34.056641,-35.1875 1.20073,-3.051 -20.662307,17.643311 -29.435547,22.775391 -5.26363,3.079071 -12.339815,3.890291 -16.140625,0.212891 -7.75632,-7.50449 26.965135,-44.623104 24.046875,-47.78125 z m 34.703121,16.449218 c -1.46433,0.488111 -9.93724,13.003921 -9.90234,14.642578 0.0349,1.64162 7.98353,4.045593 11.15625,13.947266 3.17272,9.901672 1.95312,25.66016 1.95312,25.66016 6.97302,-3.20758 18.03864,-39.961912 -3.20703,-54.250004 z"
       style="fill:#b3b3b3;fill-opacity:1;fill-rule:evenodd;stroke:none;stroke-width:0.125;stroke-linecap:butt;stroke-linejoin:miter;stroke-miterlimit:4;stroke-dasharray:none;stroke-opacity:1"
       inkscape:connector-curvature="0" />
    <g
       style="fill:#4d4d4d;fill-opacity:1;stroke:none"
       id="g2201">
      <path
         style="fill:#4d4d4d;fill-opacity:1;fill-rule:evenodd;stroke:none;stroke-width:1px;stroke-linecap:butt;stroke-linejoin:miter;stroke-opacity:1"
         d="m 79.886738,152.50463 c -12.064566,3.11252 -29.384407,39.68306 -30.143215,45.63732 2.789203,0.6973 61.276667,-67.94683 30.551685,-4.33028 22.278032,-18.85255 44.660392,-52.77 27.507492,-9.86372 -4.05367,10.13986 15.79289,10.14631 35.16668,-10.98232 -5.07963,3.25623 -30.7407,18.65608 -16.61439,-13.35674 7.41984,-16.81471 -17.13576,-0.19442 -23.98669,6.2284 1.43266,-6.50386 6.57603,-18.05375 -1.75155,-14.85502 -8.327574,3.19873 -17.306377,9.70693 -32.678925,24.13282 8.82797,-14.21866 9.286356,-15.70753 11.948913,-22.61046 z"
         id="path2173"
         sodipodi:nodetypes="cccscscscc"
         inkscape:connector-curvature="0" />
      <path
         style="fill:#4d4d4d;fill-opacity:1;fill-rule:evenodd;stroke:none;stroke-width:1px;stroke-linecap:butt;stroke-linejoin:miter;stroke-opacity:1"
         d="m 248.85492,188.50638 c 14.36441,-1.9724 35.50945,-23.83429 6.35715,-25.19854 -32.0339,-1.49196 7.67031,-12.83033 7.67031,-12.83033 -17.29306,-1.11568 -48.73292,18.20862 -23.08066,15.27088 25.8289,-2.98193 26.12877,20.42757 -0.55784,20.39606 -3.73472,-0.004 -2.58001,-3.73057 -2.58001,-3.73057 l -10.88635,4.81138 c 10.30508,2.9584 14.93124,2.39968 23.0774,1.28112 z"
         id="path2183"
         sodipodi:nodetypes="cscssccs"
         inkscape:connector-curvature="0" />
      <path
         style="fill:#4d4d4d;fill-opacity:1;fill-rule:evenodd;stroke:none;stroke-width:1px;stroke-linecap:butt;stroke-linejoin:miter;stroke-opacity:1"
         d="m 35.422878,148.66454 c -15.271993,8.38137 -41.7001689,42.2882 -29.1581243,50.35208 11.7201703,7.53546 62.6768883,-28.72217 71.4023033,-45.26124 -73.3635187,57.77081 -63.601496,21.14716 -50.658609,8.2709 8.797017,-10.71827 36.995609,-18.34115 44.472618,-33.50576 -38.691947,20.77422 -41.075952,2.98467 -8.838869,-17.69949 5.927426,-3.79599 45.107173,-21.778141 15.126578,3.46158 17.733876,-8.25545 32.757975,-21.014755 21.172756,-23.515437 -15.05738,-3.250151 -38.738684,15.159767 -50.848905,25.042097 -7.122698,5.81235 -36.224104,29.57427 -12.669748,32.85527 z"
         id="path6069"
         sodipodi:nodetypes="cscccscssc"
         inkscape:connector-curvature="0" />
      <g
         style="fill:#4d4d4d;fill-opacity:1;stroke:none"
         id="g2188">
        <path
           sodipodi:nodetypes="ccc"
           id="path2175"
           d="m 153.52386,181.54504 c -39.12656,31.03168 -20.08439,-16.95166 26.48116,-31.59503 -35.57255,24.17305 -40.24026,34.66017 -26.48116,31.59503 z"
           style="fill:#4d4d4d;fill-opacity:1;fill-rule:evenodd;stroke:none;stroke-width:1px;stroke-linecap:butt;stroke-linejoin:miter;stroke-opacity:1"
           inkscape:connector-curvature="0" />
        <path
           sodipodi:nodetypes="ccc"
           id="path2177"
           d="m 196.30981,176.96638 c -40.17251,32.49601 -46.01116,-4.86443 -12.00489,-21.8617 -17.16381,26.82279 -0.70826,22.55602 12.00489,21.8617 z"
           style="fill:#4d4d4d;fill-opacity:1;fill-rule:evenodd;stroke:none;stroke-width:1px;stroke-linecap:butt;stroke-linejoin:miter;stroke-opacity:1"
           inkscape:connector-curvature="0" />
      </g>
      <path
         style="fill:#4d4d4d;fill-opacity:1;fill-rule:evenodd;stroke:none;stroke-width:1px;stroke-linecap:butt;stroke-linejoin:miter;stroke-opacity:1"
         d="m 229.3687,178.97034 c -43.79847,32.07763 -50.89227,-17.69477 7.93791,-28.69525 -48.96072,28.91469 -17.86186,33.29445 -7.93791,28.69525 z"
         id="path2179"
         sodipodi:nodetypes="ccc"
         inkscape:connector-curvature="0" />
    </g>
    <path
       id="path3158"
       d="m 187.52539,98.544922 c -1.34915,-0.48876 -13.61133,21.814458 -13.61133,21.814458 0,0 -16.63477,28.8299 -18.43945,18.53906 -4.02548,-22.95459 -33.09495,45.23377 -28.10547,47.72851 0.59168,0.29584 19.3281,-46.69307 22.08984,-30.4707 2.73259,16.05115 41.20706,-47.65465 38.16211,-57.492188 -0.02,-0.06471 -0.0522,-0.103374 -0.0957,-0.11914 z m -60.55078,10.177738 c 0,0 -23.08428,35.98404 -42.996094,60.94336 -24.70261,30.96455 -24.455078,45.55859 -24.455078,45.55859 0,0 27.215696,-40.55503 46.847652,-65.84961 16.81917,-21.67048 20.60352,-40.65234 20.60352,-40.65234 z"
       style="fill:#b3b3b3;fill-opacity:1;fill-rule:evenodd;stroke:none;stroke-width:0.125;stroke-linecap:butt;stroke-linejoin:miter;stroke-miterlimit:4;stroke-dasharray:none;stroke-opacity:1"
       inkscape:connector-curvature="0" />
  </g>
</svg>
